<svg version="1.1" xmlns="http://www.w3.org/2000/svg" viewBox="0 0 484.3082355744094 424.73544468928486" width="968.6164711488188" height="849.4708893785697">
  <!-- svg-source:excalidraw -->
  
  <defs>
    <style class="style-fonts">
      @font-face {
        font-family: "Virgil";
        src: url("https://excalidraw.com/Virgil.woff2");
      }
      @font-face {
        font-family: "Cascadia";
        src: url("https://excalidraw.com/Cascadia.woff2");
      }
    </style>
    
  </defs>
  <rect x="0" y="0" width="484.3082355744094" height="424.73544468928486" fill="#ffffff"></rect><g stroke-linecap="round" transform="translate(43.84570943137379 79.62161633633406) rotate(0 25.7890625 142.70596793399096)"><path d="M0 0 C0 0, 0 0, 0 0 M0 0 C0 0, 0 0, 0 0 M-0.26 6.4 C1.01 4.94, 2.28 3.47, 4.99 0.36 M-0.26 6.4 C1.19 4.73, 2.64 3.06, 4.99 0.36 M0.13 12.04 C3.04 8.7, 5.95 5.35, 10.63 -0.03 M0.13 12.04 C3.31 8.39, 6.48 4.73, 10.63 -0.03 M-0.13 18.44 C3.96 13.73, 8.05 9.03, 15.62 0.33 M-0.13 18.44 C3.32 14.47, 6.77 10.5, 15.62 0.33 M0.27 24.08 C4.56 19.14, 8.86 14.2, 21.26 -0.07 M0.27 24.08 C7.42 15.85, 14.57 7.63, 21.26 -0.07 M0 30.48 C8.81 20.36, 17.61 10.23, 26.25 0.29 M0 30.48 C6.91 22.53, 13.82 14.59, 26.25 0.29 M-0.26 36.88 C7.88 27.51, 16.02 18.15, 31.89 -0.1 M-0.26 36.88 C12.46 22.25, 25.17 7.62, 31.89 -0.1 M0.14 42.52 C11.4 29.57, 22.66 16.61, 36.88 0.26 M0.14 42.52 C10.8 30.25, 21.47 17.98, 36.88 0.26 M-0.12 48.92 C15.17 31.32, 30.47 13.72, 42.52 -0.14 M-0.12 48.92 C15.89 30.5, 31.9 12.08, 42.52 -0.14 M0.27 54.56 C17.17 35.12, 34.07 15.69, 47.51 0.22 M0.27 54.56 C13.75 39.05, 27.24 23.54, 47.51 0.22 M0.01 60.96 C15.97 42.6, 31.94 24.23, 52.49 0.58 M0.01 60.96 C20.59 37.28, 41.18 13.6, 52.49 0.58 M-0.25 67.36 C11.32 54.05, 22.89 40.74, 52.23 6.98 M-0.25 67.36 C17.42 47.03, 35.09 26.7, 52.23 6.98 M0.14 73 C16.9 53.72, 33.66 34.44, 52.63 12.62 M0.14 73 C19.05 51.25, 37.96 29.5, 52.63 12.62 M-0.12 79.4 C19.45 56.88, 39.02 34.37, 52.37 19.02 M-0.12 79.4 C12.24 65.19, 24.59 50.97, 52.37 19.02 M0.28 85.04 C14.84 68.29, 29.4 51.54, 52.1 25.42 M0.28 85.04 C20.88 61.34, 41.48 37.64, 52.1 25.42 M0.01 91.44 C12.62 76.93, 25.23 62.43, 52.5 31.06 M0.01 91.44 C14.49 74.78, 28.97 58.12, 52.5 31.06 M-0.25 97.84 C16.16 78.96, 32.57 60.08, 52.24 37.46 M-0.25 97.84 C11.56 84.25, 23.37 70.67, 52.24 37.46 M0.15 103.48 C20.85 79.66, 41.56 55.84, 52.63 43.1 M0.15 103.48 C13.57 88.04, 26.99 72.6, 52.63 43.1 M-0.11 109.88 C20.09 86.64, 40.29 63.4, 52.37 49.5 M-0.11 109.88 C19.13 87.74, 38.38 65.6, 52.37 49.5 M0.28 115.52 C18.66 94.38, 37.04 73.24, 52.11 55.9 M0.28 115.52 C14.56 99.1, 28.83 82.67, 52.11 55.9 M0.02 121.92 C16.55 102.9, 33.08 83.89, 52.5 61.54 M0.02 121.92 C18.38 100.8, 36.74 79.68, 52.5 61.54 M-0.24 128.32 C20.03 104.99, 40.31 81.67, 52.24 67.94 M-0.24 128.32 C17.55 107.85, 35.33 87.39, 52.24 67.94 M0.15 133.96 C19.42 111.8, 38.68 89.64, 52.64 73.58 M0.15 133.96 C16.14 115.56, 32.14 97.17, 52.64 73.58 M-0.11 140.36 C15.75 122.11, 31.61 103.87, 52.38 79.98 M-0.11 140.36 C18.42 119.05, 36.94 97.73, 52.38 79.98 M0.29 146 C13.36 130.96, 26.43 115.92, 52.11 86.38 M0.29 146 C19.19 124.25, 38.1 102.5, 52.11 86.38 M0.02 152.4 C13.77 136.59, 27.51 120.78, 52.51 92.02 M0.02 152.4 C17.22 132.62, 34.42 112.84, 52.51 92.02 M-0.24 158.8 C17.01 138.96, 34.25 119.12, 52.25 98.42 M-0.24 158.8 C13.76 142.69, 27.75 126.59, 52.25 98.42 M0.16 164.44 C19.66 142, 39.17 119.56, 52.64 104.06 M0.16 164.44 C19.89 141.74, 39.63 119.03, 52.64 104.06 M-0.1 170.84 C10.44 158.71, 20.98 146.58, 52.38 110.46 M-0.1 170.84 C18.27 149.7, 36.64 128.57, 52.38 110.46 M0.29 176.48 C15.06 159.49, 29.82 142.5, 52.12 116.86 M0.29 176.48 C16.59 157.73, 32.88 138.99, 52.12 116.86 M0.03 182.88 C16.86 163.51, 33.7 144.15, 52.51 122.5 M0.03 182.88 C18.8 161.28, 37.57 139.69, 52.51 122.5 M-0.23 189.27 C10.36 177.09, 20.94 164.91, 52.25 128.9 M-0.23 189.27 C13.53 173.44, 27.29 157.61, 52.25 128.9 M0.16 194.92 C20.47 171.56, 40.77 148.21, 52.65 134.54 M0.16 194.92 C12.53 180.69, 24.89 166.47, 52.65 134.54 M-0.1 201.32 C14.03 185.07, 28.15 168.82, 52.39 140.94 M-0.1 201.32 C12.59 186.71, 25.29 172.11, 52.39 140.94 M0.3 206.96 C18.16 186.41, 36.02 165.86, 52.12 147.34 M0.3 206.96 C17.54 187.12, 34.79 167.28, 52.12 147.34 M0.03 213.36 C20.03 190.35, 40.03 167.35, 52.52 152.98 M0.03 213.36 C19.93 190.47, 39.82 167.58, 52.52 152.98 M-0.23 219.75 C20.05 196.42, 40.34 173.09, 52.26 159.38 M-0.23 219.75 C10.35 207.59, 20.93 195.42, 52.26 159.38 M0.17 225.4 C20.02 202.56, 39.86 179.73, 52.65 165.02 M0.17 225.4 C16.05 207.13, 31.92 188.87, 52.65 165.02 M-0.09 231.8 C18.35 210.57, 36.8 189.35, 52.39 171.42 M-0.09 231.8 C20.75 207.82, 41.59 183.84, 52.39 171.42 M0.3 237.44 C13.17 222.64, 26.03 207.84, 52.13 177.82 M0.3 237.44 C18.14 216.92, 35.98 196.4, 52.13 177.82 M0.04 243.84 C17.14 224.16, 34.24 204.49, 52.52 183.46 M0.04 243.84 C14.63 227.05, 29.21 210.27, 52.52 183.46 M-0.22 250.23 C16.87 230.57, 33.97 210.9, 52.26 189.86 M-0.22 250.23 C17.57 229.77, 35.36 209.3, 52.26 189.86 M0.17 255.88 C12.9 241.24, 25.62 226.6, 52.66 195.5 M0.17 255.88 C10.97 243.46, 21.76 231.04, 52.66 195.5 M-0.09 262.27 C15.24 244.64, 30.56 227.01, 52.4 201.9 M-0.09 262.27 C11.73 248.68, 23.54 235.09, 52.4 201.9 M0.3 267.92 C14.88 251.16, 29.45 234.4, 52.13 208.3 M0.3 267.92 C18.18 247.35, 36.06 226.79, 52.13 208.3 M0.04 274.32 C19.75 251.65, 39.45 228.98, 52.53 213.94 M0.04 274.32 C12.84 259.59, 25.64 244.87, 52.53 213.94 M-0.22 280.71 C13.88 264.49, 27.98 248.27, 52.27 220.34 M-0.22 280.71 C13.62 264.8, 27.45 248.89, 52.27 220.34 M0.83 285.6 C19.03 264.67, 37.22 243.74, 52.66 225.98 M0.83 285.6 C18.43 265.36, 36.03 245.11, 52.66 225.98 M5.82 285.96 C18.79 271.04, 31.77 256.11, 52.4 232.38 M5.82 285.96 C21.31 268.14, 36.8 250.32, 52.4 232.38 M11.46 285.57 C25.33 269.61, 39.2 253.66, 52.14 238.78 M11.46 285.57 C26.09 268.74, 40.73 251.9, 52.14 238.78 M16.45 285.93 C24.8 276.33, 33.14 266.73, 52.53 244.42 M16.45 285.93 C28.21 272.4, 39.97 258.87, 52.53 244.42 M22.09 285.53 C28.55 278.1, 35.01 270.67, 52.27 250.82 M22.09 285.53 C29.79 276.68, 37.48 267.83, 52.27 250.82 M27.08 285.89 C34.61 277.23, 42.14 268.57, 52.67 256.46 M27.08 285.89 C32.73 279.39, 38.38 272.89, 52.67 256.46 M32.07 286.25 C39.92 277.22, 47.77 268.19, 52.4 262.86 M32.07 286.25 C37.74 279.72, 43.42 273.19, 52.4 262.86 M37.71 285.86 C41.77 281.18, 45.84 276.51, 52.14 269.25 M37.71 285.86 C43.45 279.25, 49.19 272.65, 52.14 269.25 M42.7 286.22 C44.86 283.73, 47.02 281.25, 52.54 274.9 M42.7 286.22 C46.52 281.82, 50.35 277.41, 52.54 274.9 M48.34 285.82 C49.34 284.67, 50.34 283.52, 52.28 281.3 M48.34 285.82 C49.28 284.74, 50.23 283.65, 52.28 281.3 M-0.19 285.25 C-0.19 285.25, -0.19 285.25, -0.19 285.25 M-0.19 285.25 C-0.19 285.25, -0.19 285.25, -0.19 285.25 M6.21 285.51 C4.28 283.83, 2.34 282.15, 0.17 280.26 M6.21 285.51 C4.19 283.76, 2.18 282, 0.17 280.26 M11.85 285.12 C8.76 282.42, 5.66 279.73, -0.22 274.62 M11.85 285.12 C9.33 282.92, 6.8 280.73, -0.22 274.62 M18.25 285.38 C13.99 281.68, 9.73 277.97, 0.14 269.63 M18.25 285.38 C13.36 281.13, 8.47 276.88, 0.14 269.63 M24.65 285.64 C16.69 278.72, 8.74 271.81, -0.26 263.99 M24.65 285.64 C15.96 278.09, 7.28 270.54, -0.26 263.99 M30.29 285.25 C18.23 274.76, 6.16 264.27, 0.1 259 M30.29 285.25 C23.04 278.94, 15.79 272.64, 0.1 259 M36.69 285.51 C23.26 273.83, 9.82 262.15, -0.29 253.36 M36.69 285.51 C28.07 278.02, 19.46 270.53, -0.29 253.36 M42.33 285.11 C31.23 275.46, 20.12 265.8, 0.07 248.37 M42.33 285.11 C32.15 276.26, 21.97 267.41, 0.07 248.37 M48.73 285.37 C34.75 273.22, 20.76 261.06, -0.32 242.73 M48.73 285.37 C32.33 271.12, 15.94 256.87, -0.32 242.73 M52.87 283.67 C35.97 268.98, 19.07 254.29, 0.04 237.74 M52.87 283.67 C38.55 271.22, 24.23 258.77, 0.04 237.74 M53.23 278.68 C35.61 263.37, 18 248.06, -0.36 232.1 M53.23 278.68 C41 268.05, 28.77 257.42, -0.36 232.1 M52.83 273.04 C36.28 258.65, 19.73 244.26, 0 227.11 M52.83 273.04 C35.25 257.75, 17.66 242.46, 0 227.11 M53.19 268.05 C38.14 254.97, 23.09 241.88, 0.36 222.13 M53.19 268.05 C32.4 249.97, 11.61 231.9, 0.36 222.13 M52.8 262.41 C40.52 251.74, 28.25 241.07, -0.03 216.48 M52.8 262.41 C40.56 251.77, 28.32 241.13, -0.03 216.48 M53.16 257.42 C37.76 244.04, 22.37 230.66, 0.33 211.5 M53.16 257.42 C41.94 247.67, 30.73 237.92, 0.33 211.5 M52.76 251.78 C36.23 237.4, 19.69 223.03, -0.07 205.85 M52.76 251.78 C32.9 234.51, 13.04 217.25, -0.07 205.85 M53.12 246.79 C40.83 236.11, 28.55 225.43, 0.29 200.87 M53.12 246.79 C33.61 229.83, 14.1 212.87, 0.29 200.87 M52.73 241.15 C40.14 230.2, 27.55 219.26, -0.1 195.22 M52.73 241.15 C32.8 223.83, 12.88 206.5, -0.1 195.22 M53.09 236.16 C35.12 220.54, 17.16 204.93, 0.26 190.24 M53.09 236.16 C39.73 224.55, 26.37 212.93, 0.26 190.24 M52.69 230.52 C34.83 214.99, 16.98 199.47, -0.14 184.59 M52.69 230.52 C39.48 219.03, 26.26 207.54, -0.14 184.59 M53.05 225.53 C32.35 207.53, 11.65 189.54, 0.22 179.6 M53.05 225.53 C34.35 209.27, 15.64 193, 0.22 179.6 M52.66 219.89 C32.11 202.03, 11.57 184.17, -0.17 173.96 M52.66 219.89 C41.42 210.12, 30.19 200.36, -0.17 173.96 M53.02 214.9 C36.47 200.51, 19.92 186.12, 0.19 168.97 M53.02 214.9 C38.89 202.61, 24.76 190.33, 0.19 168.97 M52.62 209.26 C41.29 199.4, 29.96 189.55, -0.21 163.33 M52.62 209.26 C37.53 196.14, 22.44 183.02, -0.21 163.33 M52.98 204.27 C33.1 186.99, 13.22 169.7, 0.15 158.34 M52.98 204.27 C37.64 190.93, 22.29 177.59, 0.15 158.34 M53.34 199.28 C38.05 185.99, 22.76 172.7, -0.24 152.7 M53.34 199.28 C37.63 185.63, 21.93 171.97, -0.24 152.7 M52.95 193.64 C31.82 175.27, 10.7 156.91, 0.12 147.71 M52.95 193.64 C41.13 183.36, 29.31 173.09, 0.12 147.71 M53.31 188.65 C36.23 173.81, 19.16 158.96, -0.27 142.07 M53.31 188.65 C39.25 176.43, 25.18 164.2, -0.27 142.07 M52.91 183.01 C34.44 166.95, 15.97 150.89, 0.09 137.08 M52.91 183.01 C33.31 165.97, 13.71 148.93, 0.09 137.08 M53.28 178.02 C38.34 165.04, 23.4 152.05, -0.31 131.44 M53.28 178.02 C41.28 167.6, 29.29 157.17, -0.31 131.44 M52.88 172.38 C35 156.84, 17.12 141.29, 0.05 126.45 M52.88 172.38 C34.96 156.8, 17.04 141.22, 0.05 126.45 M53.24 167.39 C33.06 149.85, 12.87 132.3, -0.34 120.81 M53.24 167.39 C41.95 157.58, 30.66 147.76, -0.34 120.81 M52.85 161.75 C40.93 151.39, 29.01 141.03, 0.02 115.82 M52.85 161.75 C40.26 150.81, 27.67 139.86, 0.02 115.82 M53.21 156.76 C38.92 144.35, 24.64 131.93, 0.38 110.84 M53.21 156.76 C39.49 144.84, 25.77 132.91, 0.38 110.84 M52.81 151.12 C41.31 141.12, 29.82 131.13, -0.02 105.19 M52.81 151.12 C37.94 138.19, 23.07 125.27, -0.02 105.19 M53.17 146.13 C39.19 133.98, 25.21 121.82, 0.34 100.21 M53.17 146.13 C42.05 136.47, 30.94 126.8, 0.34 100.21 M52.78 140.49 C38.63 128.19, 24.48 115.89, -0.05 94.56 M52.78 140.49 C32.44 122.81, 12.11 105.14, -0.05 94.56 M53.14 135.5 C36.69 121.21, 20.25 106.91, 0.31 89.58 M53.14 135.5 C36.98 121.46, 20.83 107.41, 0.31 89.58 M52.74 129.86 C38.15 117.18, 23.56 104.49, -0.09 83.93 M52.74 129.86 C33.3 112.96, 13.85 96.05, -0.09 83.93 M53.1 124.87 C42.07 115.28, 31.04 105.69, 0.27 78.95 M53.1 124.87 C32.41 106.88, 11.71 88.89, 0.27 78.95 M52.71 119.23 C37.4 105.92, 22.08 92.61, -0.12 73.3 M52.71 119.23 C34.04 103, 15.37 86.77, -0.12 73.3 M53.07 114.24 C42.36 104.93, 31.65 95.62, 0.24 68.32 M53.07 114.24 C36.31 99.67, 19.54 85.1, 0.24 68.32 M52.67 108.6 C36.68 94.7, 20.69 80.8, -0.16 62.67 M52.67 108.6 C33.31 91.76, 13.94 74.93, -0.16 62.67 M53.03 103.61 C32.68 85.92, 12.32 68.22, 0.2 57.69 M53.03 103.61 C35.35 88.24, 17.67 72.87, 0.2 57.69 M52.64 97.97 C39.14 86.24, 25.65 74.5, -0.19 52.04 M52.64 97.97 C34.87 82.52, 17.1 67.07, -0.19 52.04 M53 92.98 C37.37 79.4, 21.74 65.81, 0.17 47.06 M53 92.98 C37.19 79.24, 21.38 65.5, 0.17 47.06 M53.36 87.99 C40.72 77.01, 28.08 66.02, -0.23 41.41 M53.36 87.99 C37.57 74.27, 21.78 60.54, -0.23 41.41 M52.96 82.35 C36.04 67.64, 19.12 52.93, 0.13 36.43 M52.96 82.35 C38.73 69.98, 24.5 57.61, 0.13 36.43 M53.32 77.36 C38.41 64.4, 23.49 51.43, -0.26 30.78 M53.32 77.36 C33.15 59.83, 12.98 42.3, -0.26 30.78 M52.93 71.72 C37.51 58.32, 22.1 44.92, 0.1 25.8 M52.93 71.72 C36.73 57.64, 20.53 43.55, 0.1 25.8 M53.29 66.73 C33.77 49.76, 14.24 32.79, -0.29 20.15 M53.29 66.73 C41.51 56.49, 29.73 46.25, -0.29 20.15 M52.9 61.09 C37.57 47.77, 22.25 34.45, 0.07 15.17 M52.9 61.09 C38.32 48.42, 23.75 35.75, 0.07 15.17 M53.26 56.1 C41.35 45.76, 29.45 35.41, -0.33 9.52 M53.26 56.1 C33.64 39.05, 14.02 22, -0.33 9.52 M52.86 50.46 C40.09 39.36, 27.31 28.25, 0.03 4.54 M52.86 50.46 C39.93 39.22, 27 27.98, 0.03 4.54 M53.22 45.47 C35.95 30.46, 18.68 15.45, 0.39 -0.45 M53.22 45.47 C39.5 33.55, 25.78 21.62, 0.39 -0.45 M52.83 39.83 C38.07 27, 23.3 14.17, 6.79 -0.19 M52.83 39.83 C39.74 28.46, 26.66 17.08, 6.79 -0.19 M53.19 34.84 C40.94 24.2, 28.69 13.55, 12.43 -0.58 M53.19 34.84 C43.08 26.06, 32.97 17.27, 12.43 -0.58 M52.79 29.2 C41.01 18.96, 29.22 8.71, 18.83 -0.32 M52.79 29.2 C43.68 21.28, 34.56 13.35, 18.83 -0.32 M53.15 24.21 C44.2 16.43, 35.25 8.65, 24.47 -0.72 M53.15 24.21 C42.2 14.7, 31.25 5.18, 24.47 -0.72 M52.76 18.57 C44.26 11.18, 35.76 3.8, 30.87 -0.46 M52.76 18.57 C46.75 13.35, 40.74 8.12, 30.87 -0.46 M53.12 13.58 C48.72 9.76, 44.33 5.95, 37.27 -0.19 M53.12 13.58 C49.71 10.63, 46.31 7.67, 37.27 -0.19 M52.72 7.94 C49.21 4.88, 45.69 1.82, 42.91 -0.59 M52.72 7.94 C48.97 4.67, 45.21 1.41, 42.91 -0.59 M53.08 2.95 C52.11 2.11, 51.13 1.26, 49.31 -0.33 M53.08 2.95 C52.31 2.29, 51.55 1.62, 49.31 -0.33" stroke="#f08c00" stroke-width="0.5" fill="none"></path><path d="M0 0 C18.65 0, 37.3 0, 51.58 0 M0 0 C12.92 0, 25.85 0, 51.58 0 M51.58 0 C51.58 103.98, 51.58 207.95, 51.58 285.41 M51.58 0 C51.58 80.43, 51.58 160.87, 51.58 285.41 M51.58 285.41 C37.43 285.41, 23.27 285.41, 0 285.41 M51.58 285.41 C38.26 285.41, 24.95 285.41, 0 285.41 M0 285.41 C0 173.65, 0 61.89, 0 0 M0 285.41 C0 212.45, 0 139.48, 0 0" stroke="#1e1e1e" stroke-width="1" fill="none"></path></g><g stroke-linecap="round"><g transform="translate(10 364.86245027151006) rotate(0 220.69080767117617 0)"><path d="M0 0 C73.56 0, 367.82 0, 441.38 0 M0 0 C73.56 0, 367.82 0, 441.38 0" stroke="#1e1e1e" stroke-width="1" fill="none"></path></g><g transform="translate(10 364.86245027151006) rotate(0 220.69080767117617 0)"><path d="M413.19 10.26 C423 6.69, 432.81 3.12, 441.38 0 M413.19 10.26 C424.34 6.2, 435.48 2.15, 441.38 0" stroke="#1e1e1e" stroke-width="1" fill="none"></path></g><g transform="translate(10 364.86245027151006) rotate(0 220.69080767117617 0)"><path d="M413.19 -10.26 C423 -6.69, 432.81 -3.12, 441.38 0 M413.19 -10.26 C424.34 -6.2, 435.48 -2.15, 441.38 0" stroke="#1e1e1e" stroke-width="1" fill="none"></path></g></g><mask></mask><g stroke-linecap="round"><g transform="translate(43.93109005972644 382.40151277151006) rotate(0 0 -174.83203125)"><path d="M0 0 C0 -58.28, 0 -291.39, 0 -349.66 M0 0 C0 -58.28, 0 -291.39, 0 -349.66" stroke="#1e1e1e" stroke-width="1" fill="none"></path></g><g transform="translate(43.93109005972644 382.40151277151006) rotate(0 0 -174.83203125)"><path d="M10.26 -321.47 C7.34 -329.5, 4.42 -337.52, 0 -349.66 M10.26 -321.47 C7.09 -330.2, 3.91 -338.92, 0 -349.66" stroke="#1e1e1e" stroke-width="1" fill="none"></path></g><g transform="translate(43.93109005972644 382.40151277151006) rotate(0 0 -174.83203125)"><path d="M-10.26 -321.47 C-7.34 -329.5, -4.42 -337.52, 0 -349.66 M-10.26 -321.47 C-7.09 -330.2, -3.91 -338.92, 0 -349.66" stroke="#1e1e1e" stroke-width="1" fill="none"></path></g></g><mask></mask><g stroke-linecap="round"><g transform="translate(43.8791770356637 78.51804318615262) rotate(0 182.03801467133627 50.68751571838678)"><path d="M0 0 C60.68 16.9, 303.4 84.48, 364.08 101.38 M0 0 C60.68 16.9, 303.4 84.48, 364.08 101.38" stroke="#e03131" stroke-width="2" fill="none"></path></g></g><mask></mask><g stroke-linecap="round"><g transform="translate(408.0390625 178.95229402151006) rotate(0 0 92.30859375000003)"><path d="M0 0 C0 30.77, 0 153.85, 0 184.62 M0 0 C0 30.77, 0 153.85, 0 184.62" stroke="#1e1e1e" stroke-width="1" fill="none"></path></g></g><mask></mask><g stroke-linecap="round" transform="translate(356.8962538183773 166.32780881224312) rotate(0 25.7890625 99.0903731976885)"><path d="M0 0 C0 0, 0 0, 0 0 M0 0 C0 0, 0 0, 0 0 M-0.26 6.4 C1.51 4.36, 3.28 2.32, 4.99 0.36 M-0.26 6.4 C1.29 4.61, 2.84 2.82, 4.99 0.36 M0.13 12.04 C2.81 8.97, 5.48 5.89, 10.63 -0.03 M0.13 12.04 C2.96 8.79, 5.78 5.55, 10.63 -0.03 M-0.13 18.44 C3.14 14.68, 6.4 10.93, 15.62 0.33 M-0.13 18.44 C5.23 12.28, 10.58 6.12, 15.62 0.33 M0.27 24.08 C7.99 15.2, 15.71 6.32, 21.26 -0.07 M0.27 24.08 C4.67 19.02, 9.07 13.95, 21.26 -0.07 M0 30.48 C9.76 19.26, 19.51 8.05, 26.25 0.29 M0 30.48 C7.2 22.2, 14.4 13.92, 26.25 0.29 M-0.26 36.88 C7.71 27.71, 15.67 18.55, 31.89 -0.1 M-0.26 36.88 C12.47 22.24, 25.19 7.61, 31.89 -0.1 M0.14 42.52 C13.03 27.69, 25.93 12.85, 36.88 0.26 M0.14 42.52 C10.07 31.09, 20.01 19.67, 36.88 0.26 M-0.12 48.92 C12.33 34.59, 24.78 20.27, 42.52 -0.14 M-0.12 48.92 C16.82 29.43, 33.76 9.94, 42.52 -0.14 M0.27 54.56 C13.01 39.91, 25.74 25.26, 47.51 0.22 M0.27 54.56 C11.95 41.12, 23.63 27.69, 47.51 0.22 M0.01 60.96 C10.57 48.81, 21.13 36.66, 52.49 0.58 M0.01 60.96 C12.17 46.97, 24.32 32.99, 52.49 0.58 M-0.25 67.36 C13.12 51.98, 26.48 36.6, 52.23 6.98 M-0.25 67.36 C13.96 51.01, 28.17 34.66, 52.23 6.98 M0.14 73 C20.04 50.11, 39.94 27.22, 52.63 12.62 M0.14 73 C19.2 51.08, 38.25 29.16, 52.63 12.62 M-0.12 79.4 C12.3 65.12, 24.71 50.84, 52.37 19.02 M-0.12 79.4 C18.43 58.06, 36.98 36.72, 52.37 19.02 M0.28 85.04 C17.52 65.21, 34.76 45.37, 52.1 25.42 M0.28 85.04 C15.96 67, 31.64 48.96, 52.1 25.42 M0.01 91.44 C18.31 70.39, 36.61 49.35, 52.5 31.06 M0.01 91.44 C13.39 76.05, 26.77 60.66, 52.5 31.06 M-0.25 97.84 C14.02 81.43, 28.28 65.02, 52.24 37.46 M-0.25 97.84 C10.68 85.27, 21.6 72.7, 52.24 37.46 M0.15 103.48 C17.33 83.71, 34.52 63.94, 52.63 43.1 M0.15 103.48 C14.92 86.48, 29.7 69.48, 52.63 43.1 M-0.11 109.88 C16.14 91.18, 32.39 72.49, 52.37 49.5 M-0.11 109.88 C14.83 92.69, 29.77 75.5, 52.37 49.5 M0.28 115.52 C16.49 96.88, 32.7 78.23, 52.11 55.9 M0.28 115.52 C15.13 98.43, 29.99 81.35, 52.11 55.9 M0.02 121.92 C13.79 106.07, 27.57 90.22, 52.5 61.54 M0.02 121.92 C20.17 98.74, 40.32 75.56, 52.5 61.54 M-0.24 128.32 C12.74 113.38, 25.72 98.45, 52.24 67.94 M-0.24 128.32 C13.94 112, 28.12 95.69, 52.24 67.94 M0.15 133.96 C13.26 118.88, 26.36 103.81, 52.64 73.58 M0.15 133.96 C10.88 121.62, 21.6 109.29, 52.64 73.58 M-0.11 140.36 C14.44 123.62, 28.99 106.89, 52.38 79.98 M-0.11 140.36 C19.8 117.45, 39.72 94.54, 52.38 79.98 M0.29 146 C15.51 128.48, 30.74 110.96, 52.11 86.38 M0.29 146 C15.39 128.63, 30.49 111.25, 52.11 86.38 M0.02 152.4 C18.46 131.18, 36.91 109.97, 52.51 92.02 M0.02 152.4 C16.19 133.8, 32.36 115.2, 52.51 92.02 M-0.24 158.8 C16.58 139.45, 33.4 120.1, 52.25 98.42 M-0.24 158.8 C12.23 144.45, 24.69 130.11, 52.25 98.42 M0.16 164.44 C11.81 151.03, 23.46 137.63, 52.64 104.06 M0.16 164.44 C15.75 146.5, 31.34 128.57, 52.64 104.06 M-0.1 170.84 C18.71 149.2, 37.52 127.56, 52.38 110.46 M-0.1 170.84 C14.69 153.82, 29.48 136.8, 52.38 110.46 M0.29 176.48 C12.97 161.9, 25.64 147.32, 52.12 116.86 M0.29 176.48 C17.59 156.57, 34.9 136.67, 52.12 116.86 M0.03 182.88 C17.85 162.38, 35.67 141.88, 52.51 122.5 M0.03 182.88 C16.32 164.13, 32.62 145.39, 52.51 122.5 M-0.23 189.27 C19.57 166.49, 39.38 143.71, 52.25 128.9 M-0.23 189.27 C18.3 167.95, 36.84 146.63, 52.25 128.9 M0.16 194.92 C15.84 176.88, 31.53 158.84, 52.65 134.54 M0.16 194.92 C13.62 179.44, 27.07 163.96, 52.65 134.54 M1.21 199.81 C20.76 177.32, 40.31 154.83, 52.39 140.94 M1.21 199.81 C13.3 185.9, 25.39 171.99, 52.39 140.94 M6.86 199.41 C23.8 179.92, 40.75 160.42, 52.12 147.34 M6.86 199.41 C20.41 183.82, 33.96 168.23, 52.12 147.34 M11.84 199.77 C20.92 189.33, 30.01 178.88, 52.52 152.98 M11.84 199.77 C20.44 189.88, 29.05 179.98, 52.52 152.98 M17.49 199.38 C24.7 191.07, 31.92 182.77, 52.26 159.38 M17.49 199.38 C26.74 188.73, 36 178.08, 52.26 159.38 M22.47 199.74 C30.59 190.4, 38.7 181.07, 52.65 165.02 M22.47 199.74 C30.14 190.92, 37.8 182.11, 52.65 165.02 M28.12 199.34 C36.43 189.77, 44.75 180.2, 52.39 171.42 M28.12 199.34 C33.71 192.91, 39.3 186.48, 52.39 171.42 M33.1 199.7 C38.62 193.36, 44.13 187.02, 52.13 177.82 M33.1 199.7 C38.54 193.45, 43.97 187.2, 52.13 177.82 M38.75 199.31 C41.88 195.71, 45.01 192.1, 52.52 183.46 M38.75 199.31 C43.05 194.36, 47.36 189.4, 52.52 183.46 M43.73 199.67 C45.95 197.12, 48.17 194.56, 52.26 189.86 M43.73 199.67 C46.94 195.98, 50.14 192.3, 52.26 189.86 M49.38 199.27 C50.07 198.47, 50.77 197.67, 52.66 195.5 M49.38 199.27 C50.29 198.22, 51.21 197.16, 52.66 195.5 M-0.01 198.17 C-0.01 198.17, -0.01 198.17, -0.01 198.17 M-0.01 198.17 C-0.01 198.17, -0.01 198.17, -0.01 198.17 M6.38 198.43 C4.27 196.59, 2.15 194.75, 0.35 193.18 M6.38 198.43 C4.29 196.61, 2.2 194.79, 0.35 193.18 M12.03 198.04 C7.67 194.25, 3.31 190.46, -0.05 187.54 M12.03 198.04 C7.93 194.47, 3.82 190.91, -0.05 187.54 M18.42 198.3 C11.18 192, 3.94 185.7, 0.31 182.55 M18.42 198.3 C11.66 192.42, 4.9 186.54, 0.31 182.55 M24.07 197.9 C17.91 192.55, 11.75 187.19, -0.08 176.91 M24.07 197.9 C17.16 191.9, 10.25 185.89, -0.08 176.91 M30.47 198.16 C23.82 192.39, 17.18 186.62, 0.28 171.92 M30.47 198.16 C22.35 191.1, 14.22 184.05, 0.28 171.92 M36.86 198.43 C28.5 191.16, 20.14 183.88, -0.12 166.28 M36.86 198.43 C28.17 190.87, 19.48 183.31, -0.12 166.28 M42.51 198.03 C26.7 184.29, 10.9 170.55, 0.24 161.29 M42.51 198.03 C26.12 183.78, 9.73 169.53, 0.24 161.29 M48.9 198.29 C35.96 187.04, 23.01 175.78, -0.15 155.65 M48.9 198.29 C29.78 181.67, 10.66 165.05, -0.15 155.65 M53.04 196.59 C35.71 181.52, 18.37 166.45, 0.21 150.66 M53.04 196.59 C35.52 181.36, 18 166.13, 0.21 150.66 M52.64 190.94 C33.56 174.36, 14.49 157.77, -0.19 145.02 M52.64 190.94 C36.77 177.14, 20.9 163.35, -0.19 145.02 M53 185.96 C39.7 174.39, 26.4 162.83, 0.17 140.03 M53 185.96 C34.57 169.93, 16.13 153.9, 0.17 140.03 M53.36 180.97 C36.55 166.35, 19.74 151.74, -0.22 134.39 M53.36 180.97 C39.21 168.67, 25.07 156.37, -0.22 134.39 M52.97 175.33 C41.48 165.34, 29.99 155.35, 0.14 129.4 M52.97 175.33 C35.25 159.92, 17.53 144.52, 0.14 129.4 M53.33 170.34 C36.14 155.39, 18.94 140.45, -0.26 123.76 M53.33 170.34 C35.94 155.22, 18.56 140.11, -0.26 123.76 M52.93 164.7 C42.32 155.47, 31.71 146.25, 0.1 118.77 M52.93 164.7 C40.62 153.99, 28.3 143.28, 0.1 118.77 M53.29 159.71 C32.69 141.79, 12.08 123.88, -0.29 113.13 M53.29 159.71 C38.69 147.02, 24.09 134.32, -0.29 113.13 M52.9 154.07 C38.07 141.17, 23.24 128.28, 0.07 108.14 M52.9 154.07 C40.67 143.44, 28.44 132.81, 0.07 108.14 M53.26 149.08 C36.63 134.62, 20 120.16, -0.32 102.5 M53.26 149.08 C40.09 137.63, 26.92 126.18, -0.32 102.5 M52.87 143.44 C40.25 132.47, 27.63 121.5, 0.04 97.51 M52.87 143.44 C33.51 126.61, 14.15 109.78, 0.04 97.51 M53.23 138.45 C36.8 124.17, 20.37 109.89, -0.36 91.87 M53.23 138.45 C35.61 123.13, 17.99 107.82, -0.36 91.87 M52.83 132.8 C33.79 116.26, 14.76 99.71, 0 86.88 M52.83 132.8 C35.87 118.06, 18.91 103.32, 0 86.88 M53.19 127.82 C32.86 110.15, 12.53 92.48, 0.36 81.89 M53.19 127.82 C34.54 111.61, 15.89 95.4, 0.36 81.89 M52.8 122.17 C40.47 111.46, 28.14 100.74, -0.03 76.25 M52.8 122.17 C40.91 111.84, 29.02 101.51, -0.03 76.25 M53.16 117.19 C34.15 100.67, 15.15 84.15, 0.33 71.26 M53.16 117.19 C37.49 103.57, 21.81 89.94, 0.33 71.26 M52.76 111.54 C34.32 95.52, 15.88 79.49, -0.07 65.62 M52.76 111.54 C39.28 99.82, 25.8 88.1, -0.07 65.62 M53.12 106.56 C39.96 95.11, 26.79 83.67, 0.29 60.63 M53.12 106.56 C38.07 93.48, 23.02 80.39, 0.29 60.63 M52.73 100.91 C36.78 87.05, 20.83 73.19, -0.1 54.99 M52.73 100.91 C40.31 90.12, 27.88 79.32, -0.1 54.99 M53.09 95.93 C38.61 83.34, 24.13 70.75, 0.26 50 M53.09 95.93 C32.5 78.03, 11.91 60.13, 0.26 50 M52.69 90.28 C32.13 72.41, 11.56 54.53, -0.14 44.36 M52.69 90.28 C40.27 79.48, 27.84 68.68, -0.14 44.36 M53.05 85.3 C39.39 73.42, 25.73 61.55, 0.22 39.37 M53.05 85.3 C40.9 74.73, 28.75 64.17, 0.22 39.37 M52.66 79.65 C41.46 69.92, 30.26 60.18, -0.17 33.73 M52.66 79.65 C32.96 62.53, 13.26 45.41, -0.17 33.73 M53.02 74.67 C40.88 64.11, 28.73 53.56, 0.19 28.74 M53.02 74.67 C33.38 57.6, 13.75 40.53, 0.19 28.74 M52.62 69.02 C38.16 56.45, 23.7 43.88, -0.21 23.1 M52.62 69.02 C41.41 59.28, 30.2 49.53, -0.21 23.1 M52.98 64.04 C41.46 54.02, 29.93 44, 0.15 18.11 M52.98 64.04 C35.7 49.01, 18.41 33.98, 0.15 18.11 M53.34 59.05 C32.91 41.29, 12.47 23.52, -0.24 12.47 M53.34 59.05 C33.82 42.07, 14.29 25.1, -0.24 12.47 M52.95 53.41 C39.37 41.61, 25.8 29.8, 0.12 7.48 M52.95 53.41 C34.13 37.05, 15.32 20.69, 0.12 7.48 M53.31 48.42 C40.18 37.01, 27.06 25.6, -0.27 1.84 M53.31 48.42 C37.91 35.03, 22.51 21.64, -0.27 1.84 M52.92 42.78 C33.26 25.69, 13.61 8.61, 1.59 -1.83 M52.92 42.78 C39.32 30.96, 25.72 19.13, 1.59 -1.83 M53.28 37.79 C40.71 26.87, 28.14 15.94, 7.99 -1.57 M53.28 37.79 C40.32 26.53, 27.37 15.27, 7.99 -1.57 M52.88 32.15 C43.63 24.11, 34.39 16.07, 13.64 -1.97 M52.88 32.15 C44.76 25.09, 36.64 18.03, 13.64 -1.97 M53.24 27.16 C40.11 15.74, 26.98 4.33, 20.03 -1.71 M53.24 27.16 C42.88 18.15, 32.52 9.15, 20.03 -1.71 M52.85 21.52 C45.84 15.42, 38.83 9.33, 25.68 -2.1 M52.85 21.52 C45.18 14.85, 37.52 8.19, 25.68 -2.1 M53.21 16.53 C48.6 12.52, 43.99 8.52, 32.07 -1.84 M53.21 16.53 C45.52 9.85, 37.83 3.16, 32.07 -1.84 M52.81 10.89 C48.57 7.2, 44.33 3.51, 38.47 -1.58 M52.81 10.89 C47.97 6.68, 43.13 2.47, 38.47 -1.58 M53.17 5.9 C50.75 3.79, 48.32 1.68, 44.12 -1.97 M53.17 5.9 C50.57 3.64, 47.97 1.38, 44.12 -1.97" stroke="#f08c00" stroke-width="0.5" fill="none"></path><path d="M0 0 C14.85 0, 29.69 0, 51.58 0 M0 0 C16.24 0, 32.48 0, 51.58 0 M51.58 0 C51.58 41.97, 51.58 83.93, 51.58 198.18 M51.58 0 C51.58 64.09, 51.58 128.17, 51.58 198.18 M51.58 198.18 C38.46 198.18, 25.34 198.18, 0 198.18 M51.58 198.18 C37.41 198.18, 23.25 198.18, 0 198.18 M0 198.18 C0 149.89, 0 101.6, 0 0 M0 198.18 C0 135.48, 0 72.77, 0 0" stroke="#1e1e1e" stroke-width="1" fill="none"></path></g><g stroke-linecap="round" transform="translate(304.7964658998237 152.99870416227776) rotate(0 25.7890625 105.76538924422843)"><path d="M0 0 C0 0, 0 0, 0 0 M0 0 C0 0, 0 0, 0 0 M-0.26 6.4 C1.66 4.19, 3.57 1.98, 4.99 0.36 M-0.26 6.4 C1.08 4.85, 2.43 3.31, 4.99 0.36 M0.13 12.04 C3.73 7.9, 7.33 3.76, 10.63 -0.03 M0.13 12.04 C2.51 9.31, 4.88 6.58, 10.63 -0.03 M-0.13 18.44 C3.94 13.76, 8.01 9.08, 15.62 0.33 M-0.13 18.44 C3.14 14.68, 6.4 10.92, 15.62 0.33 M0.27 24.08 C5.09 18.53, 9.91 12.99, 21.26 -0.07 M0.27 24.08 C7.85 15.36, 15.43 6.64, 21.26 -0.07 M0 30.48 C7.44 21.93, 14.87 13.38, 26.25 0.29 M0 30.48 C6.04 23.54, 12.08 16.59, 26.25 0.29 M-0.26 36.88 C10.15 24.91, 20.56 12.94, 31.89 -0.1 M-0.26 36.88 C8.42 26.89, 17.1 16.91, 31.89 -0.1 M0.14 42.52 C11.25 29.74, 22.36 16.96, 36.88 0.26 M0.14 42.52 C14.12 26.44, 28.09 10.36, 36.88 0.26 M-0.12 48.92 C16.34 29.98, 32.8 11.05, 42.52 -0.14 M-0.12 48.92 C9.96 37.32, 20.04 25.73, 42.52 -0.14 M0.27 54.56 C15.64 36.88, 31.02 19.19, 47.51 0.22 M0.27 54.56 C10.61 42.67, 20.95 30.77, 47.51 0.22 M0.01 60.96 C11.79 47.4, 23.58 33.84, 52.49 0.58 M0.01 60.96 C18.22 40.01, 36.43 19.07, 52.49 0.58 M-0.25 67.36 C15.96 48.71, 32.16 30.07, 52.23 6.98 M-0.25 67.36 C10.68 54.78, 21.62 42.19, 52.23 6.98 M0.14 73 C15.58 55.24, 31.02 37.48, 52.63 12.62 M0.14 73 C15.43 55.41, 30.72 37.82, 52.63 12.62 M-0.12 79.4 C18.55 57.92, 37.22 36.44, 52.37 19.02 M-0.12 79.4 C16.43 60.37, 32.97 41.33, 52.37 19.02 M0.28 85.04 C15.65 67.36, 31.02 49.67, 52.1 25.42 M0.28 85.04 C19.05 63.44, 37.83 41.84, 52.1 25.42 M0.01 91.44 C16.62 72.33, 33.23 53.23, 52.5 31.06 M0.01 91.44 C10.97 78.83, 21.93 66.23, 52.5 31.06 M-0.25 97.84 C19.72 74.87, 39.68 51.9, 52.24 37.46 M-0.25 97.84 C13.19 82.38, 26.62 66.93, 52.24 37.46 M0.15 103.48 C20.5 80.06, 40.86 56.65, 52.63 43.1 M0.15 103.48 C13.88 87.69, 27.61 71.89, 52.63 43.1 M-0.11 109.88 C17.79 89.29, 35.68 68.7, 52.37 49.5 M-0.11 109.88 C14.12 93.5, 28.35 77.13, 52.37 49.5 M0.28 115.52 C16.55 96.8, 32.82 78.09, 52.11 55.9 M0.28 115.52 C18.38 94.7, 36.48 73.87, 52.11 55.9 M0.02 121.92 C11.61 108.58, 23.2 95.25, 52.5 61.54 M0.02 121.92 C16.31 103.18, 32.6 84.44, 52.5 61.54 M-0.24 128.32 C19.98 105.05, 40.21 81.78, 52.24 67.94 M-0.24 128.32 C12.91 113.19, 26.06 98.06, 52.24 67.94 M0.15 133.96 C16.37 115.3, 32.59 96.64, 52.64 73.58 M0.15 133.96 C14.78 117.14, 29.4 100.31, 52.64 73.58 M-0.11 140.36 C12.48 125.87, 25.08 111.38, 52.38 79.98 M-0.11 140.36 C12.87 125.42, 25.86 110.49, 52.38 79.98 M0.29 146 C17.99 125.63, 35.7 105.26, 52.11 86.38 M0.29 146 C15.04 129.03, 29.79 112.06, 52.11 86.38 M0.02 152.4 C13.78 136.58, 27.53 120.75, 52.51 92.02 M0.02 152.4 C17.07 132.79, 34.11 113.19, 52.51 92.02 M-0.24 158.8 C15.6 140.58, 31.44 122.36, 52.25 98.42 M-0.24 158.8 C12.34 144.32, 24.93 129.85, 52.25 98.42 M0.16 164.44 C20.27 141.3, 40.38 118.17, 52.64 104.06 M0.16 164.44 C19.61 142.06, 39.07 119.68, 52.64 104.06 M-0.1 170.84 C11.39 157.61, 22.89 144.38, 52.38 110.46 M-0.1 170.84 C13.48 155.21, 27.06 139.59, 52.38 110.46 M0.29 176.48 C14.88 159.69, 29.47 142.91, 52.12 116.86 M0.29 176.48 C19.81 154.02, 39.33 131.57, 52.12 116.86 M0.03 182.88 C19.47 160.51, 38.91 138.15, 52.51 122.5 M0.03 182.88 C13.65 167.21, 27.27 151.54, 52.51 122.5 M-0.23 189.27 C19.83 166.19, 39.89 143.11, 52.25 128.9 M-0.23 189.27 C12.2 174.98, 24.63 160.68, 52.25 128.9 M0.16 194.92 C14.82 178.06, 29.47 161.2, 52.65 134.54 M0.16 194.92 C19.21 173, 38.26 151.09, 52.65 134.54 M-0.1 201.32 C13.41 185.77, 26.92 170.23, 52.39 140.94 M-0.1 201.32 C18.21 180.25, 36.52 159.19, 52.39 140.94 M0.3 206.96 C16.68 188.11, 33.06 169.27, 52.12 147.34 M0.3 206.96 C15.49 189.48, 30.68 172, 52.12 147.34 M0.69 212.6 C12.4 199.13, 24.11 185.66, 52.52 152.98 M0.69 212.6 C11.75 199.88, 22.8 187.16, 52.52 152.98 M6.33 212.21 C20.03 196.45, 33.73 180.69, 52.26 159.38 M6.33 212.21 C23.66 192.28, 40.98 172.35, 52.26 159.38 M11.32 212.57 C25.93 195.76, 40.54 178.95, 52.65 165.02 M11.32 212.57 C20.99 201.44, 30.67 190.31, 52.65 165.02 M16.96 212.17 C27.24 200.35, 37.51 188.53, 52.39 171.42 M16.96 212.17 C29.21 198.09, 41.45 184, 52.39 171.42 M21.95 212.53 C29.58 203.76, 37.21 194.98, 52.13 177.82 M21.95 212.53 C31.54 201.5, 41.13 190.47, 52.13 177.82 M27.59 212.14 C32.64 206.33, 37.68 200.53, 52.52 183.46 M27.59 212.14 C35.86 202.63, 44.13 193.11, 52.52 183.46 M32.58 212.5 C38.16 206.08, 43.74 199.67, 52.26 189.86 M32.58 212.5 C37.99 206.28, 43.39 200.06, 52.26 189.86 M38.22 212.1 C43.9 205.57, 49.58 199.04, 52.66 195.5 M38.22 212.1 C42.15 207.59, 46.08 203.07, 52.66 195.5 M43.21 212.46 C46.44 208.75, 49.67 205.03, 52.4 201.9 M43.21 212.46 C45.21 210.16, 47.21 207.86, 52.4 201.9 M48.85 212.07 C49.73 211.06, 50.61 210.05, 52.13 208.3 M48.85 212.07 C49.86 210.91, 50.86 209.76, 52.13 208.3 M0.17 211.68 C0.17 211.68, 0.17 211.68, 0.17 211.68 M0.17 211.68 C0.17 211.68, 0.17 211.68, 0.17 211.68 M5.81 211.28 C4.14 209.83, 2.46 208.37, -0.23 206.03 M5.81 211.28 C3.53 209.3, 1.25 207.32, -0.23 206.03 M12.21 211.54 C7.85 207.76, 3.49 203.97, 0.13 201.05 M12.21 211.54 C9.42 209.12, 6.63 206.7, 0.13 201.05 M18.61 211.81 C12.56 206.55, 6.51 201.29, -0.26 195.4 M18.61 211.81 C14.24 208.01, 9.88 204.22, -0.26 195.4 M24.25 211.41 C18.23 206.18, 12.21 200.94, 0.1 190.42 M24.25 211.41 C18.39 206.31, 12.52 201.21, 0.1 190.42 M30.65 211.67 C20.03 202.45, 9.42 193.22, -0.3 184.77 M30.65 211.67 C23.93 205.83, 17.21 199.99, -0.3 184.77 M36.29 211.28 C26.53 202.79, 16.76 194.3, 0.07 179.79 M36.29 211.28 C24.53 201.05, 12.76 190.82, 0.07 179.79 M42.69 211.54 C28.19 198.94, 13.7 186.34, -0.33 174.14 M42.69 211.54 C30.35 200.82, 18.02 190.09, -0.33 174.14 M49.09 211.8 C36.2 200.6, 23.32 189.4, 0.03 169.16 M49.09 211.8 C34.1 198.77, 19.12 185.75, 0.03 169.16 M53.22 210.09 C34.91 194.18, 16.61 178.26, -0.36 163.51 M53.22 210.09 C32.01 191.66, 10.8 173.22, -0.36 163.51 M52.83 204.45 C41.41 194.53, 30 184.61, 0 158.53 M52.83 204.45 C36.09 189.9, 19.35 175.35, 0 158.53 M53.19 199.46 C40.34 188.3, 27.5 177.13, 0.36 153.54 M53.19 199.46 C37.2 185.56, 21.21 171.67, 0.36 153.54 M52.79 193.82 C38.82 181.68, 24.85 169.53, -0.04 147.9 M52.79 193.82 C31.98 175.73, 11.17 157.64, -0.04 147.9 M53.15 188.83 C33.37 171.64, 13.59 154.45, 0.32 142.91 M53.15 188.83 C33.67 171.89, 14.18 154.96, 0.32 142.91 M52.76 183.19 C37.48 169.91, 22.21 156.63, -0.07 137.27 M52.76 183.19 C38.24 170.57, 23.72 157.95, -0.07 137.27 M53.12 178.2 C36.46 163.73, 19.81 149.25, 0.29 132.28 M53.12 178.2 C34.15 161.71, 15.18 145.22, 0.29 132.28 M52.72 172.56 C35.9 157.94, 19.08 143.31, -0.11 126.64 M52.72 172.56 C42.12 163.34, 31.51 154.13, -0.11 126.64 M53.08 167.57 C37.63 154.14, 22.19 140.72, 0.25 121.65 M53.08 167.57 C40.34 156.5, 27.6 145.42, 0.25 121.65 M52.69 161.93 C35.39 146.89, 18.09 131.85, -0.14 116.01 M52.69 161.93 C35.99 147.41, 19.29 132.9, -0.14 116.01 M53.05 156.94 C33 139.52, 12.95 122.09, 0.22 111.02 M53.05 156.94 C32.65 139.21, 12.25 121.48, 0.22 111.02 M52.65 151.3 C40.06 140.36, 27.47 129.41, -0.18 105.38 M52.65 151.3 C38.47 138.97, 24.28 126.64, -0.18 105.38 M53.01 146.31 C37.33 132.68, 21.65 119.05, 0.18 100.39 M53.01 146.31 C33.57 129.41, 14.13 112.51, 0.18 100.39 M53.37 141.33 C36.24 126.43, 19.1 111.54, -0.21 94.75 M53.37 141.33 C42.2 131.62, 31.03 121.9, -0.21 94.75 M52.98 135.68 C41.78 125.95, 30.58 116.21, 0.15 89.76 M52.98 135.68 C33.75 118.97, 14.52 102.26, 0.15 89.76 M53.34 130.7 C32.57 112.64, 11.79 94.58, -0.25 84.12 M53.34 130.7 C32.45 112.54, 11.56 94.38, -0.25 84.12 M52.94 125.05 C35.04 109.49, 17.13 93.92, 0.11 79.13 M52.94 125.05 C34.23 108.78, 15.51 92.51, 0.11 79.13 M53.3 120.07 C42.34 110.53, 31.37 101, -0.28 73.49 M53.3 120.07 C33.51 102.86, 13.71 85.65, -0.28 73.49 M52.91 114.42 C35 98.86, 17.1 83.29, 0.08 68.5 M52.91 114.42 C35.87 99.61, 18.83 84.8, 0.08 68.5 M53.27 109.44 C38.26 96.38, 23.24 83.33, -0.31 62.86 M53.27 109.44 C42.16 99.78, 31.06 90.13, -0.31 62.86 M52.88 103.79 C35.98 89.11, 19.08 74.42, 0.05 57.87 M52.88 103.79 C39.4 92.08, 25.92 80.36, 0.05 57.87 M53.24 98.81 C38.73 86.19, 24.22 73.58, -0.35 52.23 M53.24 98.81 C38.95 86.39, 24.67 73.98, -0.35 52.23 M52.84 93.16 C40.35 82.3, 27.85 71.44, 0.01 47.24 M52.84 93.16 C34.78 77.46, 16.71 61.76, 0.01 47.24 M53.2 88.18 C33.15 70.74, 13.09 53.31, 0.37 42.25 M53.2 88.18 C41.93 78.37, 30.65 68.57, 0.37 42.25 M52.81 82.53 C37.45 69.18, 22.1 55.84, -0.02 36.61 M52.81 82.53 C32.96 65.28, 13.11 48.03, -0.02 36.61 M53.17 77.55 C34.31 61.16, 15.46 44.77, 0.34 31.62 M53.17 77.55 C41.68 67.56, 30.2 57.58, 0.34 31.62 M52.77 71.9 C35.29 56.71, 17.81 41.51, -0.06 25.98 M52.77 71.9 C34.16 55.72, 15.55 39.54, -0.06 25.98 M53.13 66.92 C37.31 53.16, 21.48 39.4, 0.3 20.99 M53.13 66.92 C34.6 50.8, 16.06 34.69, 0.3 20.99 M52.74 61.27 C39.39 49.67, 26.04 38.07, -0.09 15.35 M52.74 61.27 C38.42 48.83, 24.11 36.39, -0.09 15.35 M53.1 56.29 C39.81 44.73, 26.52 33.18, 0.27 10.36 M53.1 56.29 C32.52 38.4, 11.94 20.51, 0.27 10.36 M52.7 50.64 C31.66 32.35, 10.63 14.07, -0.13 4.72 M52.7 50.64 C35.07 35.32, 17.44 19.99, -0.13 4.72 M53.06 45.66 C42.3 36.3, 31.54 26.95, 0.23 -0.27 M53.06 45.66 C41.86 35.91, 30.65 26.17, 0.23 -0.27 M52.67 40.01 C36.24 25.73, 19.81 11.45, 6.63 -0.01 M52.67 40.01 C36.74 26.17, 20.81 12.32, 6.63 -0.01 M53.03 35.03 C41.06 24.63, 29.1 14.23, 12.27 -0.4 M53.03 35.03 C44.85 27.92, 36.68 20.81, 12.27 -0.4 M52.63 29.38 C40.25 18.61, 27.86 7.85, 18.67 -0.14 M52.63 29.38 C41.89 20.05, 31.15 10.71, 18.67 -0.14 M52.99 24.4 C47.09 19.27, 41.2 14.14, 24.32 -0.53 M52.99 24.4 C46.12 18.42, 39.24 12.44, 24.32 -0.53 M53.35 19.41 C46.46 13.41, 39.56 7.42, 30.71 -0.27 M53.35 19.41 C47.56 14.37, 41.76 9.33, 30.71 -0.27 M52.96 13.77 C47.07 8.65, 41.18 3.53, 37.11 -0.01 M52.96 13.77 C47.92 9.38, 42.88 5, 37.11 -0.01 M53.32 8.78 C50.08 5.96, 46.84 3.15, 42.75 -0.41 M53.32 8.78 C49.31 5.29, 45.29 1.8, 42.75 -0.41 M52.93 3.14 C51.53 1.92, 50.14 0.71, 49.15 -0.14 M52.93 3.14 C51.69 2.06, 50.46 0.99, 49.15 -0.14" stroke="#f08c00" stroke-width="0.5" fill="none"></path><path d="M0 0 C11.25 0, 22.49 0, 51.58 0 M0 0 C14.39 0, 28.78 0, 51.58 0 M51.58 0 C51.58 54.67, 51.58 109.34, 51.58 211.53 M51.58 0 C51.58 53.78, 51.58 107.57, 51.58 211.53 M51.58 211.53 C31.93 211.53, 12.28 211.53, 0 211.53 M51.58 211.53 C32.97 211.53, 14.35 211.53, 0 211.53 M0 211.53 C0 150.52, 0 89.51, 0 0 M0 211.53 C0 164.61, 0 117.7, 0 0" stroke="#1e1e1e" stroke-width="1" fill="none"></path></g><g stroke-linecap="round" transform="translate(253.09631306908716 137.7427315892124) rotate(0 25.7890625 113.43053882039219)"><path d="M0 0 C0 0, 0 0, 0 0 M0 0 C0 0, 0 0, 0 0 M-0.26 6.4 C0.83 5.14, 1.93 3.88, 4.99 0.36 M-0.26 6.4 C1.74 4.1, 3.73 1.8, 4.99 0.36 M0.13 12.04 C2.82 8.95, 5.51 5.86, 10.63 -0.03 M0.13 12.04 C4.2 7.36, 8.28 2.67, 10.63 -0.03 M-0.13 18.44 C3.99 13.7, 8.11 8.96, 15.62 0.33 M-0.13 18.44 C5.24 12.26, 10.61 6.08, 15.62 0.33 M0.27 24.08 C5.96 17.53, 11.65 10.98, 21.26 -0.07 M0.27 24.08 C6.86 16.5, 13.45 8.92, 21.26 -0.07 M0 30.48 C9.17 19.94, 18.33 9.39, 26.25 0.29 M0 30.48 C5.8 23.81, 11.6 17.15, 26.25 0.29 M-0.26 36.88 C9.72 25.4, 19.7 13.92, 31.89 -0.1 M-0.26 36.88 C12.13 22.63, 24.52 8.37, 31.89 -0.1 M0.14 42.52 C9.34 31.93, 18.55 21.34, 36.88 0.26 M0.14 42.52 C11.49 29.46, 22.85 16.4, 36.88 0.26 M-0.12 48.92 C11.76 35.25, 23.64 21.58, 42.52 -0.14 M-0.12 48.92 C10.11 37.15, 20.34 25.38, 42.52 -0.14 M0.27 54.56 C11.96 41.12, 23.64 27.68, 47.51 0.22 M0.27 54.56 C16.41 35.99, 32.55 17.43, 47.51 0.22 M0.01 60.96 C14.95 43.78, 29.88 26.59, 52.49 0.58 M0.01 60.96 C13.76 45.14, 27.52 29.31, 52.49 0.58 M-0.25 67.36 C16.79 47.75, 33.83 28.15, 52.23 6.98 M-0.25 67.36 C15.59 49.14, 31.42 30.92, 52.23 6.98 M0.14 73 C12.73 58.53, 25.31 44.05, 52.63 12.62 M0.14 73 C20.25 49.87, 40.36 26.73, 52.63 12.62 M-0.12 79.4 C19.34 57.02, 38.79 34.64, 52.37 19.02 M-0.12 79.4 C11.38 66.17, 22.88 52.94, 52.37 19.02 M0.28 85.04 C13.69 69.61, 27.1 54.18, 52.1 25.42 M0.28 85.04 C14.87 68.26, 29.46 51.47, 52.1 25.42 M0.01 91.44 C19.78 68.7, 39.55 45.96, 52.5 31.06 M0.01 91.44 C19.45 69.08, 38.89 46.71, 52.5 31.06 M-0.25 97.84 C13.37 82.17, 27 66.5, 52.24 37.46 M-0.25 97.84 C19.82 74.76, 39.88 51.68, 52.24 37.46 M0.15 103.48 C12.58 89.18, 25.01 74.88, 52.63 43.1 M0.15 103.48 C14.8 86.62, 29.46 69.76, 52.63 43.1 M-0.11 109.88 C18.94 87.96, 37.99 66.05, 52.37 49.5 M-0.11 109.88 C13.4 94.33, 26.91 78.79, 52.37 49.5 M0.28 115.52 C18.36 94.72, 36.44 73.92, 52.11 55.9 M0.28 115.52 C16.66 96.68, 33.04 77.83, 52.11 55.9 M0.02 121.92 C15.4 104.22, 30.79 86.52, 52.5 61.54 M0.02 121.92 C11.88 108.28, 23.74 94.64, 52.5 61.54 M-0.24 128.32 C10.96 115.43, 22.15 102.55, 52.24 67.94 M-0.24 128.32 C15.41 110.31, 31.07 92.3, 52.24 67.94 M0.15 133.96 C19.95 111.18, 39.75 88.41, 52.64 73.58 M0.15 133.96 C18.71 112.61, 37.26 91.27, 52.64 73.58 M-0.11 140.36 C12.17 126.23, 24.46 112.1, 52.38 79.98 M-0.11 140.36 C15.11 122.85, 30.33 105.34, 52.38 79.98 M0.29 146 C18.2 125.39, 36.11 104.79, 52.11 86.38 M0.29 146 C13.39 130.93, 26.49 115.85, 52.11 86.38 M0.02 152.4 C16.7 133.21, 33.39 114.02, 52.51 92.02 M0.02 152.4 C10.65 140.18, 21.27 127.96, 52.51 92.02 M-0.24 158.8 C17.17 138.77, 34.58 118.74, 52.25 98.42 M-0.24 158.8 C14.64 141.69, 29.51 124.57, 52.25 98.42 M0.16 164.44 C14.57 147.85, 28.99 131.27, 52.64 104.06 M0.16 164.44 C20.8 140.69, 41.45 116.94, 52.64 104.06 M-0.1 170.84 C14.17 154.41, 28.45 137.99, 52.38 110.46 M-0.1 170.84 C18.35 149.61, 36.8 128.38, 52.38 110.46 M0.29 176.48 C11.58 163.49, 22.87 150.5, 52.12 116.86 M0.29 176.48 C14.17 160.51, 28.05 144.55, 52.12 116.86 M0.03 182.88 C16.11 164.38, 32.19 145.88, 52.51 122.5 M0.03 182.88 C16.34 164.11, 32.65 145.35, 52.51 122.5 M-0.23 189.27 C18.84 167.33, 37.92 145.39, 52.25 128.9 M-0.23 189.27 C14.32 172.53, 28.88 155.79, 52.25 128.9 M0.16 194.92 C19.98 172.13, 39.79 149.33, 52.65 134.54 M0.16 194.92 C19.11 173.12, 38.05 151.33, 52.65 134.54 M-0.1 201.32 C12.02 187.37, 24.14 173.43, 52.39 140.94 M-0.1 201.32 C16.73 181.96, 33.55 162.6, 52.39 140.94 M0.3 206.96 C12.29 193.16, 24.28 179.37, 52.12 147.34 M0.3 206.96 C13.21 192.1, 26.13 177.24, 52.12 147.34 M0.03 213.36 C12.78 198.69, 25.52 184.03, 52.52 152.98 M0.03 213.36 C18.04 192.65, 36.04 171.94, 52.52 152.98 M-0.23 219.75 C11.17 206.65, 22.56 193.54, 52.26 159.38 M-0.23 219.75 C13.92 203.48, 28.07 187.2, 52.26 159.38 M0.17 225.4 C17.21 205.79, 34.26 186.18, 52.65 165.02 M0.17 225.4 C17.85 205.05, 35.54 184.71, 52.65 165.02 M2.53 228.78 C16.83 212.33, 31.13 195.88, 52.39 171.42 M2.53 228.78 C15.62 213.71, 28.72 198.65, 52.39 171.42 M7.52 229.14 C21.14 213.46, 34.77 197.78, 52.13 177.82 M7.52 229.14 C22.76 211.6, 38 194.07, 52.13 177.82 M13.16 228.74 C28.74 210.82, 44.32 192.89, 52.52 183.46 M13.16 228.74 C21.66 218.96, 30.17 209.17, 52.52 183.46 M18.15 229.1 C28.96 216.67, 39.76 204.23, 52.26 189.86 M18.15 229.1 C26.44 219.56, 34.74 210.02, 52.26 189.86 M23.79 228.71 C32.53 218.66, 41.26 208.61, 52.66 195.5 M23.79 228.71 C31.42 219.93, 39.06 211.14, 52.66 195.5 M28.78 229.07 C38.08 218.37, 47.38 207.66, 52.4 201.9 M28.78 229.07 C37.62 218.9, 46.46 208.72, 52.4 201.9 M34.42 228.67 C40.95 221.16, 47.49 213.64, 52.13 208.3 M34.42 228.67 C39.54 222.78, 44.66 216.89, 52.13 208.3 M39.41 229.03 C43.01 224.89, 46.62 220.74, 52.53 213.94 M39.41 229.03 C43.54 224.27, 47.68 219.52, 52.53 213.94 M45.05 228.64 C47.64 225.66, 50.23 222.68, 52.27 220.34 M45.05 228.64 C47.35 225.99, 49.65 223.35, 52.27 220.34 M0.13 226.97 C0.13 226.97, 0.13 226.97, 0.13 226.97 M0.13 226.97 C0.13 226.97, 0.13 226.97, 0.13 226.97 M5.77 226.58 C4.31 225.31, 2.86 224.04, -0.27 221.33 M5.77 226.58 C3.79 224.86, 1.81 223.14, -0.27 221.33 M12.17 226.84 C8.35 223.52, 4.53 220.2, 0.09 216.34 M12.17 226.84 C7.58 222.85, 3 218.87, 0.09 216.34 M18.56 227.1 C11.28 220.76, 3.99 214.43, -0.3 210.7 M18.56 227.1 C14.07 223.19, 9.57 219.28, -0.3 210.7 M24.21 226.7 C17.72 221.07, 11.24 215.43, 0.06 205.71 M24.21 226.7 C17.04 220.47, 9.87 214.24, 0.06 205.71 M30.6 226.96 C19.22 217.07, 7.83 207.17, -0.34 200.07 M30.6 226.96 C20.71 218.36, 10.82 209.76, -0.34 200.07 M36.25 226.57 C28.7 220.01, 21.14 213.44, 0.02 195.08 M36.25 226.57 C28.57 219.9, 20.89 213.22, 0.02 195.08 M42.65 226.83 C26.99 213.22, 11.33 199.61, -0.37 189.44 M42.65 226.83 C25.97 212.34, 9.29 197.84, -0.37 189.44 M49.04 227.09 C29.92 210.47, 10.8 193.85, -0.01 184.45 M49.04 227.09 C32.42 212.64, 15.79 198.18, -0.01 184.45 M53.18 225.39 C34.46 209.12, 15.74 192.85, 0.35 179.46 M53.18 225.39 C42.37 215.99, 31.56 206.59, 0.35 179.46 M52.78 219.74 C33.27 202.78, 13.75 185.81, -0.05 173.82 M52.78 219.74 C34.88 204.18, 16.97 188.61, -0.05 173.82 M53.14 214.76 C36.1 199.95, 19.07 185.13, 0.31 168.83 M53.14 214.76 C38.34 201.89, 23.54 189.02, 0.31 168.83 M52.75 209.11 C41.8 199.59, 30.85 190.08, -0.08 163.19 M52.75 209.11 C35.85 194.43, 18.96 179.74, -0.08 163.19 M53.11 204.13 C39.63 192.41, 26.15 180.69, 0.28 158.2 M53.11 204.13 C38.8 191.69, 24.5 179.26, 0.28 158.2 M52.71 198.48 C38.63 186.24, 24.55 174, -0.12 152.56 M52.71 198.48 C40.22 187.62, 27.72 176.76, -0.12 152.56 M53.07 193.5 C35.01 177.79, 16.94 162.09, 0.24 147.57 M53.07 193.5 C33.02 176.06, 12.96 158.63, 0.24 147.57 M52.68 187.85 C41.4 178.05, 30.13 168.25, -0.15 141.93 M52.68 187.85 C37.32 174.5, 21.97 161.16, -0.15 141.93 M53.04 182.87 C33.19 165.61, 13.34 148.36, 0.21 136.94 M53.04 182.87 C34.19 166.48, 15.33 150.09, 0.21 136.94 M52.64 177.22 C41.16 167.24, 29.68 157.26, -0.19 131.3 M52.64 177.22 C35.16 162.03, 17.68 146.83, -0.19 131.3 M53 172.24 C34.39 156.06, 15.78 139.88, 0.17 126.31 M53 172.24 C37.18 158.48, 21.35 144.72, 0.17 126.31 M53.36 167.25 C34.56 150.91, 15.76 134.56, -0.22 120.67 M53.36 167.25 C39.83 155.48, 26.29 143.71, -0.22 120.67 M52.97 161.61 C38.66 149.16, 24.34 136.72, 0.14 115.68 M52.97 161.61 C39.68 150.05, 26.39 138.5, 0.14 115.68 M53.33 156.62 C32.46 138.47, 11.59 120.33, -0.25 110.04 M53.33 156.62 C31.99 138.07, 10.65 119.52, -0.25 110.04 M52.94 150.98 C35.3 135.65, 17.67 120.32, 0.11 105.05 M52.94 150.98 C42.17 141.62, 31.41 132.27, 0.11 105.05 M53.3 145.99 C41.93 136.11, 30.56 126.23, -0.29 99.41 M53.3 145.99 C34.17 129.36, 15.05 112.74, -0.29 99.41 M52.9 140.35 C34.62 124.46, 16.34 108.57, 0.07 94.42 M52.9 140.35 C37.39 126.86, 21.88 113.38, 0.07 94.42 M53.26 135.36 C42.51 126.02, 31.77 116.67, -0.32 88.78 M53.26 135.36 C33.72 118.37, 14.17 101.38, -0.32 88.78 M52.87 129.72 C36.16 115.19, 19.45 100.67, 0.04 83.79 M52.87 129.72 C42 120.27, 31.13 110.82, 0.04 83.79 M53.23 124.73 C40.37 113.56, 27.52 102.38, -0.36 78.15 M53.23 124.73 C36.9 110.54, 20.58 96.35, -0.36 78.15 M52.83 119.09 C39.31 107.33, 25.79 95.57, 0 73.16 M52.83 119.09 C33.21 102.02, 13.58 84.96, 0 73.16 M53.19 114.1 C36.39 99.49, 19.58 84.88, 0.36 68.17 M53.19 114.1 C37 100.02, 20.8 85.94, 0.36 68.17 M52.8 108.46 C32.73 91.01, 12.65 73.56, -0.03 62.53 M52.8 108.46 C33.29 91.5, 13.78 74.54, -0.03 62.53 M53.16 103.47 C35.9 88.47, 18.65 73.47, 0.33 57.54 M53.16 103.47 C34.82 87.53, 16.49 71.59, 0.33 57.54 M52.76 97.83 C36.6 83.78, 20.44 69.73, -0.07 51.9 M52.76 97.83 C35.64 82.94, 18.52 68.06, -0.07 51.9 M53.12 92.84 C39.4 80.91, 25.69 68.99, 0.29 46.91 M53.12 92.84 C39.92 81.37, 26.73 69.89, 0.29 46.91 M52.73 87.2 C39.26 75.49, 25.8 63.79, -0.1 41.27 M52.73 87.2 C36.46 73.05, 20.18 58.9, -0.1 41.27 M53.09 82.21 C41.74 72.34, 30.38 62.47, 0.26 36.28 M53.09 82.21 C38.02 69.11, 22.95 56.01, 0.26 36.28 M52.69 76.57 C39.44 65.04, 26.19 53.52, -0.14 30.64 M52.69 76.57 C34.73 60.95, 16.77 45.34, -0.14 30.64 M53.05 71.58 C32.3 53.54, 11.54 35.49, 0.22 25.65 M53.05 71.58 C33.47 54.55, 13.88 37.52, 0.22 25.65 M52.66 65.94 C35.69 51.19, 18.73 36.44, -0.17 20.01 M52.66 65.94 C32.28 48.22, 11.91 30.51, -0.17 20.01 M53.02 60.95 C37.31 47.29, 21.6 33.63, 0.19 15.02 M53.02 60.95 C38.73 48.53, 24.44 36.1, 0.19 15.02 M52.62 55.31 C36.99 41.71, 21.35 28.12, -0.2 9.38 M52.62 55.31 C33.72 38.87, 14.82 22.44, -0.2 9.38 M52.99 50.32 C35.27 34.92, 17.56 19.52, 0.16 4.39 M52.99 50.32 C32.09 32.15, 11.19 13.99, 0.16 4.39 M53.35 45.33 C42.31 35.74, 31.28 26.15, 0.52 -0.59 M53.35 45.33 C36.66 30.82, 19.97 16.32, 0.52 -0.59 M52.95 39.69 C42.98 31.02, 33.01 22.35, 6.91 -0.33 M52.95 39.69 C43.56 31.53, 34.18 23.37, 6.91 -0.33 M53.31 34.7 C41.24 24.2, 29.16 13.71, 12.56 -0.73 M53.31 34.7 C42.46 25.27, 31.6 15.83, 12.56 -0.73 M52.92 29.06 C40.88 18.59, 28.84 8.13, 18.95 -0.46 M52.92 29.06 C46.11 23.14, 39.31 17.23, 18.95 -0.46 M53.28 24.07 C41.86 14.15, 30.45 4.22, 24.6 -0.86 M53.28 24.07 C42.88 15.04, 32.49 6, 24.6 -0.86 M52.88 18.43 C47.08 13.38, 41.27 8.34, 31 -0.6 M52.88 18.43 C45.51 12.02, 38.15 5.62, 31 -0.6 M53.24 13.44 C47.59 8.52, 41.93 3.61, 37.39 -0.34 M53.24 13.44 C48.42 9.25, 43.6 5.06, 37.39 -0.34 M52.85 7.8 C49.24 4.66, 45.63 1.52, 43.04 -0.73 M52.85 7.8 C50.77 6, 48.7 4.19, 43.04 -0.73 M53.21 2.81 C52.38 2.09, 51.56 1.38, 49.43 -0.47 M53.21 2.81 C51.93 1.7, 50.65 0.59, 49.43 -0.47" stroke="#f08c00" stroke-width="0.5" fill="none"></path><path d="M0 0 C17.89 0, 35.79 0, 51.58 0 M0 0 C15.93 0, 31.86 0, 51.58 0 M51.58 0 C51.58 47.27, 51.58 94.55, 51.58 226.86 M51.58 0 C51.58 66.74, 51.58 133.47, 51.58 226.86 M51.58 226.86 C36.55 226.86, 21.53 226.86, 0 226.86 M51.58 226.86 C33.23 226.86, 14.88 226.86, 0 226.86 M0 226.86 C0 155.35, 0 83.84, 0 0 M0 226.86 C0 159.58, 0 92.29, 0 0" stroke="#1e1e1e" stroke-width="1" fill="none"></path></g><g stroke-linecap="round" transform="translate(200.65042752223928 123.14124975486286) rotate(0 25.7890625 120.942169887773)"><path d="M0 0 C0 0, 0 0, 0 0 M0 0 C0 0, 0 0, 0 0 M-0.26 6.4 C1.4 4.48, 3.07 2.56, 4.99 0.36 M-0.26 6.4 C1.69 4.15, 3.64 1.91, 4.99 0.36 M0.13 12.04 C3.89 7.72, 7.64 3.41, 10.63 -0.03 M0.13 12.04 C2.77 9.01, 5.4 5.98, 10.63 -0.03 M-0.13 18.44 C3.98 13.72, 8.08 9, 15.62 0.33 M-0.13 18.44 C5.25 12.25, 10.63 6.06, 15.62 0.33 M0.27 24.08 C7.25 16.04, 14.24 8.01, 21.26 -0.07 M0.27 24.08 C4.75 18.93, 9.23 13.78, 21.26 -0.07 M0 30.48 C6.44 23.07, 12.88 15.67, 26.25 0.29 M0 30.48 C6.87 22.59, 13.73 14.69, 26.25 0.29 M-0.26 36.88 C6.3 29.34, 12.85 21.8, 31.89 -0.1 M-0.26 36.88 C7.37 28.1, 15 19.32, 31.89 -0.1 M0.14 42.52 C11.79 29.12, 23.43 15.72, 36.88 0.26 M0.14 42.52 C14.11 26.45, 28.08 10.37, 36.88 0.26 M-0.12 48.92 C15.44 31.02, 30.99 13.12, 42.52 -0.14 M-0.12 48.92 C14.74 31.82, 29.6 14.72, 42.52 -0.14 M0.27 54.56 C17.66 34.56, 35.04 14.56, 47.51 0.22 M0.27 54.56 C16.82 35.52, 33.37 16.48, 47.51 0.22 M0.01 60.96 C18.71 39.44, 37.42 17.93, 52.49 0.58 M0.01 60.96 C14.48 44.31, 28.95 27.67, 52.49 0.58 M-0.25 67.36 C17.47 46.97, 35.18 26.59, 52.23 6.98 M-0.25 67.36 C11.66 53.65, 23.58 39.95, 52.23 6.98 M0.14 73 C14.11 56.93, 28.08 40.87, 52.63 12.62 M0.14 73 C13.3 57.86, 26.46 42.72, 52.63 12.62 M-0.12 79.4 C11 66.61, 22.11 53.83, 52.37 19.02 M-0.12 79.4 C13.98 63.18, 28.07 46.97, 52.37 19.02 M0.28 85.04 C17.31 65.45, 34.33 45.86, 52.1 25.42 M0.28 85.04 C11.09 72.6, 21.9 60.16, 52.1 25.42 M0.01 91.44 C11.74 77.94, 23.48 64.45, 52.5 31.06 M0.01 91.44 C17.69 71.11, 35.36 50.78, 52.5 31.06 M-0.25 97.84 C16.82 78.2, 33.89 58.57, 52.24 37.46 M-0.25 97.84 C20.09 74.44, 40.43 51.04, 52.24 37.46 M0.15 103.48 C13.41 88.22, 26.67 72.97, 52.63 43.1 M0.15 103.48 C15.69 85.61, 31.22 67.73, 52.63 43.1 M-0.11 109.88 C20.05 86.68, 40.21 63.48, 52.37 49.5 M-0.11 109.88 C17.14 90.03, 34.39 70.19, 52.37 49.5 M0.28 115.52 C11.99 102.05, 23.7 88.58, 52.11 55.9 M0.28 115.52 C11.4 102.73, 22.51 89.95, 52.11 55.9 M0.02 121.92 C20 98.93, 39.99 75.94, 52.5 61.54 M0.02 121.92 C14.53 105.23, 29.04 88.53, 52.5 61.54 M-0.24 128.32 C16.39 109.18, 33.03 90.05, 52.24 67.94 M-0.24 128.32 C18.81 106.4, 37.85 84.49, 52.24 67.94 M0.15 133.96 C17.83 113.62, 35.52 93.28, 52.64 73.58 M0.15 133.96 C20.01 111.11, 39.88 88.26, 52.64 73.58 M-0.11 140.36 C18.05 119.46, 36.22 98.57, 52.38 79.98 M-0.11 140.36 C11.2 127.35, 22.5 114.34, 52.38 79.98 M0.29 146 C11.77 132.79, 23.25 119.59, 52.11 86.38 M0.29 146 C15.07 129, 29.85 111.99, 52.11 86.38 M0.02 152.4 C20.01 129.41, 39.99 106.42, 52.51 92.02 M0.02 152.4 C13.11 137.35, 26.19 122.3, 52.51 92.02 M-0.24 158.8 C18.15 137.64, 36.54 116.49, 52.25 98.42 M-0.24 158.8 C18.16 137.63, 36.55 116.47, 52.25 98.42 M0.16 164.44 C17.74 144.21, 35.33 123.98, 52.64 104.06 M0.16 164.44 C18.25 143.63, 36.33 122.82, 52.64 104.06 M-0.1 170.84 C20.16 147.52, 40.43 124.21, 52.38 110.46 M-0.1 170.84 C12.03 156.87, 24.17 142.91, 52.38 110.46 M0.29 176.48 C19.48 154.41, 38.67 132.33, 52.12 116.86 M0.29 176.48 C20.25 153.52, 40.21 130.56, 52.12 116.86 M0.03 182.88 C17.78 162.45, 35.54 142.03, 52.51 122.5 M0.03 182.88 C15.11 165.52, 30.2 148.17, 52.51 122.5 M-0.23 189.27 C15.2 171.52, 30.64 153.76, 52.25 128.9 M-0.23 189.27 C13.27 173.75, 26.76 158.22, 52.25 128.9 M0.16 194.92 C19.23 172.99, 38.29 151.05, 52.65 134.54 M0.16 194.92 C20.22 171.84, 40.28 148.77, 52.65 134.54 M-0.1 201.32 C18.88 179.48, 37.86 157.65, 52.39 140.94 M-0.1 201.32 C13.05 186.19, 26.2 171.06, 52.39 140.94 M0.3 206.96 C19.18 185.24, 38.06 163.52, 52.12 147.34 M0.3 206.96 C14.9 190.16, 29.51 173.35, 52.12 147.34 M0.03 213.36 C14.43 196.79, 28.84 180.22, 52.52 152.98 M0.03 213.36 C13.58 197.77, 27.13 182.19, 52.52 152.98 M-0.23 219.75 C20.32 196.11, 40.88 172.47, 52.26 159.38 M-0.23 219.75 C13.19 204.32, 26.61 188.88, 52.26 159.38 M0.17 225.4 C20.17 202.39, 40.16 179.39, 52.65 165.02 M0.17 225.4 C19.89 202.71, 39.61 180.02, 52.65 165.02 M-0.09 231.8 C12.61 217.18, 25.32 202.56, 52.39 171.42 M-0.09 231.8 C14.4 215.12, 28.9 198.44, 52.39 171.42 M0.3 237.44 C14.66 220.92, 29.02 204.4, 52.13 177.82 M0.3 237.44 C15.98 219.4, 31.66 201.36, 52.13 177.82 M0.69 243.08 C14.16 227.59, 27.62 212.11, 52.52 183.46 M0.69 243.08 C12.05 230.01, 23.41 216.95, 52.52 183.46 M6.34 242.69 C15.74 231.87, 25.14 221.06, 52.26 189.86 M6.34 242.69 C21.98 224.69, 37.63 206.69, 52.26 189.86 M11.32 243.05 C25.19 227.1, 39.05 211.16, 52.66 195.5 M11.32 243.05 C22.2 230.53, 33.08 218.01, 52.66 195.5 M16.97 242.65 C25.94 232.33, 34.91 222.01, 52.4 201.9 M16.97 242.65 C30.98 226.53, 44.99 210.41, 52.4 201.9 M21.95 243.01 C31.2 232.37, 40.45 221.73, 52.13 208.3 M21.95 243.01 C30.72 232.93, 39.48 222.85, 52.13 208.3 M27.6 242.62 C36.54 232.33, 45.48 222.04, 52.53 213.94 M27.6 242.62 C36.96 231.85, 46.32 221.08, 52.53 213.94 M32.59 242.98 C39.63 234.88, 46.67 226.78, 52.27 220.34 M32.59 242.98 C38.2 236.52, 43.82 230.05, 52.27 220.34 M38.23 242.58 C42.62 237.53, 47.01 232.48, 52.66 225.98 M38.23 242.58 C43.89 236.07, 49.55 229.56, 52.66 225.98 M43.22 242.94 C45.24 240.61, 47.26 238.29, 52.4 232.38 M43.22 242.94 C46.31 239.39, 49.4 235.83, 52.4 232.38 M48.86 242.55 C49.91 241.34, 50.95 240.14, 52.14 238.78 M48.86 242.55 C50.04 241.19, 51.22 239.83, 52.14 238.78 M0.23 242.09 C0.23 242.09, 0.23 242.09, 0.23 242.09 M0.23 242.09 C0.23 242.09, 0.23 242.09, 0.23 242.09 M5.88 241.69 C4.18 240.22, 2.48 238.74, -0.16 236.44 M5.88 241.69 C3.48 239.61, 1.08 237.52, -0.16 236.44 M12.27 241.95 C9.37 239.43, 6.47 236.91, 0.2 231.46 M12.27 241.95 C8.94 239.06, 5.61 236.16, 0.2 231.46 M17.92 241.56 C12.25 236.64, 6.59 231.71, -0.2 225.81 M17.92 241.56 C13.84 238.02, 9.77 234.48, -0.2 225.81 M24.32 241.82 C14.79 233.54, 5.26 225.26, 0.16 220.83 M24.32 241.82 C18.14 236.45, 11.96 231.09, 0.16 220.83 M30.71 242.08 C18.8 231.73, 6.89 221.38, -0.23 215.18 M30.71 242.08 C19.37 232.22, 8.02 222.36, -0.23 215.18 M36.36 241.69 C23.51 230.52, 10.66 219.35, 0.13 210.2 M36.36 241.69 C26.38 233.01, 16.4 224.34, 0.13 210.2 M42.75 241.95 C29.21 230.17, 15.66 218.4, -0.26 204.55 M42.75 241.95 C27.71 228.87, 12.66 215.79, -0.26 204.55 M49.15 242.21 C30.2 225.74, 11.25 209.27, 0.1 199.57 M49.15 242.21 C32.53 227.76, 15.9 213.31, 0.1 199.57 M53.29 240.5 C33.62 223.41, 13.95 206.31, -0.3 193.92 M53.29 240.5 C36.96 226.31, 20.63 212.12, -0.3 193.92 M52.89 234.86 C36.93 220.98, 20.96 207.11, 0.06 188.94 M52.89 234.86 C34.24 218.65, 15.6 202.44, 0.06 188.94 M53.25 229.87 C39.73 218.12, 26.22 206.37, -0.33 183.29 M53.25 229.87 C33.7 212.88, 14.16 195.89, -0.33 183.29 M52.86 224.23 C39.02 212.21, 25.19 200.18, 0.03 178.31 M52.86 224.23 C35.55 209.18, 18.24 194.14, 0.03 178.31 M53.22 219.24 C35.61 203.94, 18 188.63, -0.37 172.66 M53.22 219.24 C38.93 206.82, 24.64 194.4, -0.37 172.66 M52.82 213.6 C33.19 196.53, 13.55 179.46, -0.01 167.68 M52.82 213.6 C32.96 196.33, 13.09 179.06, -0.01 167.68 M53.18 208.61 C42.57 199.39, 31.96 190.17, 0.35 162.69 M53.18 208.61 C34.69 192.54, 16.2 176.47, 0.35 162.69 M52.79 202.97 C37.73 189.89, 22.68 176.8, -0.04 157.05 M52.79 202.97 C36.18 188.53, 19.57 174.09, -0.04 157.05 M53.15 197.98 C36.2 183.25, 19.26 168.53, 0.32 152.06 M53.15 197.98 C34.25 181.56, 15.36 165.13, 0.32 152.06 M52.75 192.34 C42.1 183.08, 31.44 173.81, -0.08 146.42 M52.75 192.34 C38.9 180.3, 25.05 168.26, -0.08 146.42 M53.11 187.35 C32.68 169.59, 12.24 151.82, 0.28 141.43 M53.11 187.35 C40.67 176.54, 28.22 165.72, 0.28 141.43 M52.72 181.71 C38.5 169.35, 24.28 156.99, -0.11 135.79 M52.72 181.71 C39.94 170.6, 27.16 159.5, -0.11 135.79 M53.08 176.72 C34.87 160.9, 16.66 145.07, 0.25 130.8 M53.08 176.72 C35.5 161.44, 17.92 146.16, 0.25 130.8 M52.68 171.08 C32.55 153.58, 12.42 136.08, -0.15 125.16 M52.68 171.08 C32.66 153.67, 12.63 136.27, -0.15 125.16 M53.04 166.09 C32.63 148.35, 12.21 130.6, 0.21 120.17 M53.04 166.09 C42.4 156.84, 31.75 147.58, 0.21 120.17 M52.65 160.45 C32.67 143.08, 12.69 125.72, -0.18 114.53 M52.65 160.45 C36.67 146.56, 20.68 132.66, -0.18 114.53 M53.01 155.46 C34.44 139.32, 15.87 123.18, 0.18 109.54 M53.01 155.46 C32.03 137.23, 11.05 118.99, 0.18 109.54 M53.37 150.48 C40.07 138.91, 26.77 127.35, -0.21 103.9 M53.37 150.48 C34.93 134.44, 16.48 118.41, -0.21 103.9 M52.97 144.83 C35.76 129.87, 18.55 114.91, 0.15 98.91 M52.97 144.83 C38.29 132.07, 23.61 119.3, 0.15 98.91 M53.34 139.85 C35.88 124.67, 18.43 109.5, -0.25 93.27 M53.34 139.85 C35.17 124.06, 17 108.26, -0.25 93.27 M52.94 134.2 C40.13 123.07, 27.33 111.94, 0.11 88.28 M52.94 134.2 C42.08 124.76, 31.21 115.31, 0.11 88.28 M53.3 129.22 C37.65 115.61, 22 102.01, -0.28 82.64 M53.3 129.22 C41.24 118.73, 29.17 108.24, -0.28 82.64 M52.91 123.57 C38.05 110.66, 23.2 97.75, 0.08 77.65 M52.91 123.57 C34.68 107.73, 16.46 91.89, 0.08 77.65 M53.27 118.59 C33.15 101.1, 13.03 83.61, -0.32 72.01 M53.27 118.59 C40.2 107.23, 27.13 95.87, -0.32 72.01 M52.87 112.94 C38.68 100.61, 24.49 88.27, 0.04 67.02 M52.87 112.94 C38.95 100.84, 25.02 88.73, 0.04 67.02 M53.23 107.96 C34.42 91.6, 15.61 75.25, -0.35 61.38 M53.23 107.96 C35.04 92.14, 16.84 76.32, -0.35 61.38 M52.84 102.31 C38.12 89.52, 23.41 76.73, 0.01 56.39 M52.84 102.31 C35.27 87.04, 17.7 71.77, 0.01 56.39 M53.2 97.33 C35.18 81.67, 17.17 66.01, 0.37 51.4 M53.2 97.33 C34.19 80.81, 15.19 64.29, 0.37 51.4 M52.8 91.68 C40.58 81.06, 28.36 70.44, -0.03 45.76 M52.8 91.68 C35.58 76.72, 18.37 61.75, -0.03 45.76 M53.16 86.7 C41.85 76.87, 30.55 67.04, 0.33 40.77 M53.16 86.7 C39.69 74.99, 26.22 63.28, 0.33 40.77 M52.77 81.05 C37.22 67.54, 21.68 54.03, -0.06 35.13 M52.77 81.05 C41.1 70.91, 29.43 60.77, -0.06 35.13 M53.13 76.07 C32.73 58.34, 12.34 40.61, 0.3 30.14 M53.13 76.07 C38.38 63.25, 23.64 50.43, 0.3 30.14 M52.73 70.42 C37.86 57.49, 22.98 44.56, -0.1 24.5 M52.73 70.42 C31.72 52.16, 10.71 33.89, -0.1 24.5 M53.09 65.44 C41.49 55.35, 29.89 45.26, 0.26 19.51 M53.09 65.44 C32.55 47.57, 12 29.71, 0.26 19.51 M52.7 59.79 C39.26 48.11, 25.82 36.43, -0.13 13.87 M52.7 59.79 C40.02 48.77, 27.34 37.75, -0.13 13.87 M53.06 54.81 C41.21 44.5, 29.36 34.2, 0.23 8.88 M53.06 54.81 C40.14 43.57, 27.22 32.34, 0.23 8.88 M52.66 49.16 C35.72 34.44, 18.78 19.71, -0.17 3.24 M52.66 49.16 C35.01 33.82, 17.36 18.47, -0.17 3.24 M53.02 44.18 C39.67 32.57, 26.31 20.96, 0.95 -1.09 M53.02 44.18 C42.14 34.71, 31.25 25.24, 0.95 -1.09 M52.63 38.53 C41.98 29.27, 31.33 20.02, 7.35 -0.83 M52.63 38.53 C40.41 27.91, 28.18 17.28, 7.35 -0.83 M52.99 33.55 C40.21 22.44, 27.44 11.33, 12.99 -1.23 M52.99 33.55 C39.04 21.42, 25.09 9.29, 12.99 -1.23 M53.35 28.56 C39.78 16.76, 26.2 4.96, 19.39 -0.96 M53.35 28.56 C45.19 21.47, 37.03 14.37, 19.39 -0.96 M52.96 22.92 C42.81 14.1, 32.67 5.28, 25.03 -1.36 M52.96 22.92 C46.45 17.26, 39.94 11.6, 25.03 -1.36 M53.32 17.93 C47.56 12.93, 41.81 7.93, 31.43 -1.1 M53.32 17.93 C48.04 13.35, 42.77 8.76, 31.43 -1.1 M52.92 12.29 C48.62 8.55, 44.32 4.8, 37.83 -0.84 M52.92 12.29 C47.88 7.9, 42.83 3.51, 37.83 -0.84 M53.28 7.3 C50.14 4.57, 47 1.84, 43.47 -1.23 M53.28 7.3 C50.62 4.99, 47.96 2.68, 43.47 -1.23 M52.89 1.66 C51.89 0.79, 50.9 -0.07, 49.87 -0.97 M52.89 1.66 C52.2 1.06, 51.51 0.46, 49.87 -0.97" stroke="#f08c00" stroke-width="0.5" fill="none"></path><path d="M0 0 C14 0, 28 0, 51.58 0 M0 0 C11.54 0, 23.08 0, 51.58 0 M51.58 0 C51.58 50.39, 51.58 100.77, 51.58 241.88 M51.58 0 C51.58 72.79, 51.58 145.57, 51.58 241.88 M51.58 241.88 C38.5 241.88, 25.42 241.88, 0 241.88 M51.58 241.88 C34.87 241.88, 18.16 241.88, 0 241.88 M0 241.88 C0 189.33, 0 136.77, 0 0 M0 241.88 C0 167.94, 0 94, 0 0" stroke="#1e1e1e" stroke-width="1" fill="none"></path></g><g stroke-linecap="round" transform="translate(148.12426381601074 108.4645840900028) rotate(0 25.7890625 128.06593100774637)"><path d="M0 0 C0 0, 0 0, 0 0 M0 0 C0 0, 0 0, 0 0 M-0.26 6.4 C1.52 4.35, 3.29 2.31, 4.99 0.36 M-0.26 6.4 C1.11 4.82, 2.48 3.25, 4.99 0.36 M0.13 12.04 C2.51 9.3, 4.89 6.57, 10.63 -0.03 M0.13 12.04 C3.58 8.08, 7.02 4.11, 10.63 -0.03 M-0.13 18.44 C3.96 13.74, 8.04 9.04, 15.62 0.33 M-0.13 18.44 C3.15 14.66, 6.44 10.89, 15.62 0.33 M0.27 24.08 C6.75 16.63, 13.23 9.17, 21.26 -0.07 M0.27 24.08 C4.79 18.88, 9.3 13.68, 21.26 -0.07 M0 30.48 C6.38 23.15, 12.76 15.81, 26.25 0.29 M0 30.48 C9.35 19.73, 18.69 8.99, 26.25 0.29 M-0.26 36.88 C9.27 25.92, 18.79 14.97, 31.89 -0.1 M-0.26 36.88 C8.2 27.15, 16.66 17.42, 31.89 -0.1 M0.14 42.52 C8.83 32.53, 17.51 22.53, 36.88 0.26 M0.14 42.52 C12.11 28.75, 24.08 14.97, 36.88 0.26 M-0.12 48.92 C14.15 32.49, 28.43 16.07, 42.52 -0.14 M-0.12 48.92 C9.3 38.08, 18.72 27.24, 42.52 -0.14 M0.27 54.56 C16.04 36.42, 31.81 18.28, 47.51 0.22 M0.27 54.56 C11.8 41.3, 23.32 28.04, 47.51 0.22 M0.01 60.96 C11.39 47.87, 22.77 34.78, 52.49 0.58 M0.01 60.96 C12.65 46.41, 25.3 31.87, 52.49 0.58 M-0.25 67.36 C19.48 44.66, 39.21 21.97, 52.23 6.98 M-0.25 67.36 C17.54 46.89, 35.33 26.42, 52.23 6.98 M0.14 73 C20.16 49.97, 40.18 26.95, 52.63 12.62 M0.14 73 C14.75 56.2, 29.36 39.39, 52.63 12.62 M-0.12 79.4 C18.26 58.25, 36.64 37.11, 52.37 19.02 M-0.12 79.4 C17.87 58.7, 35.87 38, 52.37 19.02 M0.28 85.04 C16.58 66.28, 32.89 47.52, 52.1 25.42 M0.28 85.04 C15.39 67.65, 30.51 50.26, 52.1 25.42 M0.01 91.44 C20.55 67.81, 41.09 44.19, 52.5 31.06 M0.01 91.44 C15.26 73.9, 30.5 56.37, 52.5 31.06 M-0.25 97.84 C18.1 76.73, 36.45 55.62, 52.24 37.46 M-0.25 97.84 C12.48 83.2, 25.2 68.56, 52.24 37.46 M0.15 103.48 C20.12 80.5, 40.1 57.52, 52.63 43.1 M0.15 103.48 C16.94 84.16, 33.74 64.84, 52.63 43.1 M-0.11 109.88 C13.85 93.82, 27.8 77.76, 52.37 49.5 M-0.11 109.88 C15.39 92.04, 30.9 74.2, 52.37 49.5 M0.28 115.52 C18.23 94.87, 36.19 74.22, 52.11 55.9 M0.28 115.52 C14.42 99.26, 28.55 83, 52.11 55.9 M0.02 121.92 C15.27 104.38, 30.52 86.83, 52.5 61.54 M0.02 121.92 C11.48 108.73, 22.95 95.54, 52.5 61.54 M-0.24 128.32 C13.6 112.39, 27.45 96.46, 52.24 67.94 M-0.24 128.32 C15.14 110.62, 30.52 92.93, 52.24 67.94 M0.15 133.96 C15.73 116.03, 31.32 98.11, 52.64 73.58 M0.15 133.96 C20.22 110.87, 40.29 87.79, 52.64 73.58 M-0.11 140.36 C13.26 124.97, 26.64 109.59, 52.38 79.98 M-0.11 140.36 C11.88 126.56, 23.88 112.76, 52.38 79.98 M0.29 146 C10.93 133.75, 21.58 121.5, 52.11 86.38 M0.29 146 C19.01 124.46, 37.74 102.91, 52.11 86.38 M0.02 152.4 C20.41 128.95, 40.79 105.5, 52.51 92.02 M0.02 152.4 C12.08 138.53, 24.13 124.66, 52.51 92.02 M-0.24 158.8 C19.9 135.64, 40.03 112.48, 52.25 98.42 M-0.24 158.8 C17.22 138.72, 34.67 118.64, 52.25 98.42 M0.16 164.44 C14.87 147.52, 29.58 130.6, 52.64 104.06 M0.16 164.44 C18.54 143.29, 36.93 122.13, 52.64 104.06 M-0.1 170.84 C12.78 156.01, 25.66 141.19, 52.38 110.46 M-0.1 170.84 C14.39 154.16, 28.89 137.48, 52.38 110.46 M0.29 176.48 C15.48 159.01, 30.67 141.53, 52.12 116.86 M0.29 176.48 C18.29 155.77, 36.3 135.06, 52.12 116.86 M0.03 182.88 C13.27 167.65, 26.51 152.42, 52.51 122.5 M0.03 182.88 C19.76 160.18, 39.49 137.48, 52.51 122.5 M-0.23 189.27 C17.42 168.97, 35.08 148.66, 52.25 128.9 M-0.23 189.27 C14.5 172.32, 29.24 155.37, 52.25 128.9 M0.16 194.92 C16.53 176.09, 32.89 157.27, 52.65 134.54 M0.16 194.92 C11.62 181.74, 23.07 168.57, 52.65 134.54 M-0.1 201.32 C13.89 185.22, 27.88 169.13, 52.39 140.94 M-0.1 201.32 C16.36 182.38, 32.83 163.44, 52.39 140.94 M0.3 206.96 C19.94 184.36, 39.58 161.76, 52.12 147.34 M0.3 206.96 C20.65 183.54, 41.01 160.13, 52.12 147.34 M0.03 213.36 C15.09 196.04, 30.14 178.72, 52.52 152.98 M0.03 213.36 C16.43 194.49, 32.83 175.63, 52.52 152.98 M-0.23 219.75 C13.19 204.32, 26.6 188.89, 52.26 159.38 M-0.23 219.75 C15.12 202.1, 30.46 184.45, 52.26 159.38 M0.17 225.4 C18.4 204.42, 36.64 183.44, 52.65 165.02 M0.17 225.4 C13.09 210.53, 26.02 195.66, 52.65 165.02 M-0.09 231.8 C20.38 208.24, 40.85 184.69, 52.39 171.42 M-0.09 231.8 C16.33 212.9, 32.76 194, 52.39 171.42 M0.3 237.44 C18.2 216.85, 36.1 196.26, 52.13 177.82 M0.3 237.44 C20.4 214.32, 40.5 191.19, 52.13 177.82 M0.04 243.84 C14.63 227.05, 29.22 210.27, 52.52 183.46 M0.04 243.84 C13.36 228.52, 26.67 213.2, 52.52 183.46 M-0.22 250.23 C16.81 230.64, 33.84 211.05, 52.26 189.86 M-0.22 250.23 C16.19 231.36, 32.6 212.48, 52.26 189.86 M0.17 255.88 C13.9 240.08, 27.64 224.28, 52.66 195.5 M0.17 255.88 C16.8 236.75, 33.42 217.63, 52.66 195.5 M3.19 258.5 C16.75 242.9, 30.31 227.3, 52.4 201.9 M3.19 258.5 C17.93 241.54, 32.67 224.59, 52.4 201.9 M8.18 258.86 C22.69 242.16, 37.21 225.46, 52.13 208.3 M8.18 258.86 C21.69 243.32, 35.2 227.77, 52.13 208.3 M13.82 258.47 C26.84 243.49, 39.85 228.52, 52.53 213.94 M13.82 258.47 C26.61 243.75, 39.4 229.04, 52.53 213.94 M18.81 258.83 C29.51 246.52, 40.21 234.21, 52.27 220.34 M18.81 258.83 C26.64 249.81, 34.48 240.8, 52.27 220.34 M24.45 258.43 C35.49 245.74, 46.52 233.04, 52.66 225.98 M24.45 258.43 C32.64 249.01, 40.83 239.59, 52.66 225.98 M29.44 258.79 C36.63 250.51, 43.83 242.23, 52.4 232.38 M29.44 258.79 C36.52 250.64, 43.61 242.49, 52.4 232.38 M35.08 258.4 C39.71 253.07, 44.35 247.74, 52.14 238.78 M35.08 258.4 C41.34 251.19, 47.61 243.99, 52.14 238.78 M40.07 258.76 C43.07 255.3, 46.07 251.85, 52.53 244.42 M40.07 258.76 C44.37 253.81, 48.67 248.86, 52.53 244.42 M45.71 258.36 C48.05 255.68, 50.38 252.99, 52.27 250.82 M45.71 258.36 C47.37 256.46, 49.02 254.55, 52.27 250.82 M-0.03 256.11 C-0.03 256.11, -0.03 256.11, -0.03 256.11 M-0.03 256.11 C-0.03 256.11, -0.03 256.11, -0.03 256.11 M6.37 256.37 C4.14 254.43, 1.91 252.5, 0.33 251.12 M6.37 256.37 C4.31 254.58, 2.26 252.79, 0.33 251.12 M12.01 255.97 C8.98 253.34, 5.95 250.71, -0.06 245.48 M12.01 255.97 C7.42 251.99, 2.84 248, -0.06 245.48 M18.41 256.24 C11.47 250.2, 4.53 244.17, 0.3 240.49 M18.41 256.24 C12.45 251.06, 6.5 245.88, 0.3 240.49 M24.05 255.84 C18.56 251.07, 13.07 246.29, -0.1 234.85 M24.05 255.84 C18.66 251.16, 13.28 246.47, -0.1 234.85 M30.45 256.1 C23.9 250.4, 17.34 244.7, 0.26 229.86 M30.45 256.1 C23.87 250.38, 17.29 244.66, 0.26 229.86 M36.85 256.36 C24.79 245.88, 12.74 235.4, -0.13 224.22 M36.85 256.36 C25.07 246.12, 13.28 235.88, -0.13 224.22 M42.49 255.97 C32.48 247.27, 22.47 238.57, 0.23 219.23 M42.49 255.97 C29.31 244.51, 16.14 233.06, 0.23 219.23 M48.89 256.23 C33.65 242.98, 18.41 229.74, -0.17 213.59 M48.89 256.23 C34.33 243.57, 19.77 230.91, -0.17 213.59 M53.02 254.52 C34.28 238.23, 15.53 221.93, 0.19 208.6 M53.02 254.52 C41.55 244.55, 30.08 234.58, 0.19 208.6 M52.63 248.88 C31.89 230.86, 11.16 212.83, -0.2 202.96 M52.63 248.88 C31.96 230.92, 11.3 212.95, -0.2 202.96 M52.99 243.89 C40.8 233.3, 28.62 222.71, 0.16 197.97 M52.99 243.89 C40.1 232.69, 27.21 221.48, 0.16 197.97 M53.35 238.91 C41.05 228.22, 28.76 217.53, -0.24 192.33 M53.35 238.91 C40.58 227.81, 27.81 216.71, -0.24 192.33 M52.95 233.26 C38.65 220.83, 24.36 208.4, 0.12 187.34 M52.95 233.26 C42.09 223.82, 31.23 214.38, 0.12 187.34 M53.31 228.28 C35.82 213.07, 18.33 197.86, -0.27 181.7 M53.31 228.28 C38.43 215.34, 23.55 202.4, -0.27 181.7 M52.92 222.63 C40.87 212.15, 28.81 201.68, 0.09 176.71 M52.92 222.63 C41.4 212.62, 29.88 202.61, 0.09 176.71 M53.28 217.65 C40.68 206.69, 28.08 195.74, -0.3 171.07 M53.28 217.65 C34.39 201.23, 15.51 184.81, -0.3 171.07 M52.89 212 C42.14 202.67, 31.4 193.33, 0.06 166.08 M52.89 212 C36.99 198.19, 21.1 184.37, 0.06 166.08 M53.25 207.02 C34.27 190.52, 15.3 174.03, -0.34 160.44 M53.25 207.02 C36.72 192.65, 20.2 178.29, -0.34 160.44 M52.85 201.37 C40.01 190.21, 27.16 179.04, 0.02 155.45 M52.85 201.37 C32.96 184.08, 13.07 166.79, 0.02 155.45 M53.21 196.39 C35.59 181.07, 17.97 165.75, -0.37 149.81 M53.21 196.39 C32.07 178.01, 10.93 159.63, -0.37 149.81 M52.82 190.74 C34.78 175.06, 16.74 159.38, -0.01 144.82 M52.82 190.74 C38.52 178.32, 24.22 165.89, -0.01 144.82 M53.18 185.76 C39.88 174.2, 26.59 162.65, 0.35 139.83 M53.18 185.76 C39.28 173.67, 25.37 161.59, 0.35 139.83 M52.78 180.11 C40.15 169.13, 27.52 158.15, -0.05 134.19 M52.78 180.11 C36.3 165.79, 19.82 151.46, -0.05 134.19 M53.14 175.13 C39.32 163.11, 25.49 151.09, 0.31 129.2 M53.14 175.13 C33.62 158.16, 14.1 141.19, 0.31 129.2 M52.75 169.48 C40.93 159.21, 29.11 148.93, -0.08 123.56 M52.75 169.48 C35.19 154.22, 17.63 138.96, -0.08 123.56 M53.11 164.5 C34.87 148.65, 16.64 132.8, 0.28 118.57 M53.11 164.5 C33.45 147.41, 13.79 130.32, 0.28 118.57 M52.71 158.85 C35.29 143.7, 17.86 128.56, -0.12 112.93 M52.71 158.85 C38.61 146.6, 24.51 134.34, -0.12 112.93 M53.07 153.87 C35.38 138.49, 17.69 123.11, 0.24 107.94 M53.07 153.87 C35.51 138.59, 17.94 123.32, 0.24 107.94 M52.68 148.22 C34.78 132.66, 16.87 117.1, -0.15 102.3 M52.68 148.22 C33.99 131.98, 15.3 115.73, -0.15 102.3 M53.04 143.24 C36.62 128.96, 20.2 114.69, 0.21 97.31 M53.04 143.24 C36.37 128.75, 19.71 114.26, 0.21 97.31 M52.64 137.59 C32.62 120.19, 12.59 102.78, -0.19 91.67 M52.64 137.59 C35 122.25, 17.35 106.91, -0.19 91.67 M53 132.61 C31.89 114.25, 10.78 95.9, 0.17 86.68 M53 132.61 C32.47 114.76, 11.94 96.91, 0.17 86.68 M53.36 127.62 C35.92 112.46, 18.48 97.29, -0.22 81.04 M53.36 127.62 C39.85 115.87, 26.33 104.12, -0.22 81.04 M52.97 121.98 C33.16 104.76, 13.36 87.54, 0.14 76.05 M52.97 121.98 C41.18 111.73, 29.4 101.48, 0.14 76.05 M53.33 116.99 C42.6 107.66, 31.86 98.33, -0.25 70.41 M53.33 116.99 C39.62 105.07, 25.91 93.15, -0.25 70.41 M52.94 111.35 C39.35 99.54, 25.77 87.73, 0.11 65.42 M52.94 111.35 C37.46 97.89, 21.99 84.44, 0.11 65.42 M53.3 106.36 C33.34 89.02, 13.39 71.67, -0.29 59.78 M53.3 106.36 C32.1 87.93, 10.91 69.51, -0.29 59.78 M52.9 100.72 C36.34 86.32, 19.77 71.92, 0.07 54.79 M52.9 100.72 C38.36 88.07, 23.82 75.43, 0.07 54.79 M53.26 95.73 C34.11 79.08, 14.97 62.44, -0.32 49.15 M53.26 95.73 C41.2 85.25, 29.15 74.77, -0.32 49.15 M52.87 90.09 C39.22 78.22, 25.56 66.35, 0.04 44.16 M52.87 90.09 C39.64 78.58, 26.4 67.08, 0.04 44.16 M53.23 85.1 C41.55 74.94, 29.86 64.79, -0.36 38.52 M53.23 85.1 C42.45 75.73, 31.67 66.36, -0.36 38.52 M52.83 79.46 C39.48 67.84, 26.12 56.23, 0 33.53 M52.83 79.46 C36.88 65.59, 20.93 51.72, 0 33.53 M53.19 74.47 C33.97 57.76, 14.75 41.05, 0.36 28.54 M53.19 74.47 C38.19 61.43, 23.18 48.38, 0.36 28.54 M52.8 68.83 C36.7 54.83, 20.6 40.83, -0.03 22.9 M52.8 68.83 C36.09 54.3, 19.38 39.77, -0.03 22.9 M53.16 63.84 C34.6 47.71, 16.05 31.58, 0.33 17.91 M53.16 63.84 C35.37 48.38, 17.58 32.91, 0.33 17.91 M52.76 58.2 C38.55 45.84, 24.34 33.49, -0.07 12.27 M52.76 58.2 C32.52 40.6, 12.27 23, -0.07 12.27 M53.12 53.21 C38.15 40.19, 23.18 27.18, 0.29 7.28 M53.12 53.21 C35.93 38.26, 18.73 23.32, 0.29 7.28 M52.73 47.57 C39.66 36.21, 26.6 24.85, -0.1 1.64 M52.73 47.57 C31.83 29.4, 10.93 11.23, -0.1 1.64 M53.09 42.58 C42.28 33.19, 31.48 23.79, 1.77 -2.03 M53.09 42.58 C36.68 28.32, 20.27 14.05, 1.77 -2.03 M52.69 36.94 C35.41 21.91, 18.12 6.88, 8.17 -1.77 M52.69 36.94 C41.6 27.29, 30.5 17.64, 8.17 -1.77 M53.05 31.95 C40.11 20.7, 27.17 9.45, 13.81 -2.17 M53.05 31.95 C41.6 21.99, 30.14 12.03, 13.81 -2.17 M52.66 26.31 C43.34 18.2, 34.01 10.1, 20.21 -1.91 M52.66 26.31 C44.76 19.44, 36.87 12.58, 20.21 -1.91 M53.02 21.32 C42.56 12.23, 32.11 3.14, 25.85 -2.3 M53.02 21.32 C44.38 13.81, 35.75 6.31, 25.85 -2.3 M52.62 15.67 C44.74 8.83, 36.87 1.98, 32.25 -2.04 M52.62 15.67 C46.92 10.72, 41.21 5.76, 32.25 -2.04 M52.98 10.69 C49.16 7.37, 45.34 4.04, 38.65 -1.78 M52.98 10.69 C47.59 6, 42.2 1.31, 38.65 -1.78 M53.34 5.7 C49.94 2.74, 46.54 -0.22, 44.29 -2.17 M53.34 5.7 C50.95 3.62, 48.55 1.53, 44.29 -2.17" stroke="#f08c00" stroke-width="0.5" fill="none"></path><path d="M0 0 C13.56 0, 27.13 0, 51.58 0 M0 0 C20.05 0, 40.09 0, 51.58 0 M51.58 0 C51.58 59.59, 51.58 119.19, 51.58 256.13 M51.58 0 C51.58 100.36, 51.58 200.73, 51.58 256.13 M51.58 256.13 C39.61 256.13, 27.63 256.13, 0 256.13 M51.58 256.13 C38.36 256.13, 25.15 256.13, 0 256.13 M0 256.13 C0 184.17, 0 112.21, 0 0 M0 256.13 C0 155.14, 0 54.16, 0 0" stroke="#1e1e1e" stroke-width="1" fill="none"></path></g><g stroke-linecap="round" transform="translate(95.61430309365949 94.06282739904913) rotate(0 25.7890625 135.1230022230321)"><path d="M0 0 C0 0, 0 0, 0 0 M0 0 C0 0, 0 0, 0 0 M-0.26 6.4 C1.48 4.39, 3.22 2.39, 4.99 0.36 M-0.26 6.4 C1 4.94, 2.27 3.49, 4.99 0.36 M0.13 12.04 C3.93 7.68, 7.72 3.31, 10.63 -0.03 M0.13 12.04 C2.52 9.29, 4.91 6.54, 10.63 -0.03 M-0.13 18.44 C3.11 14.71, 6.35 10.99, 15.62 0.33 M-0.13 18.44 C3.61 14.14, 7.35 9.83, 15.62 0.33 M0.27 24.08 C7.8 15.41, 15.34 6.74, 21.26 -0.07 M0.27 24.08 C8.07 15.11, 15.86 6.14, 21.26 -0.07 M0 30.48 C9 20.13, 18 9.78, 26.25 0.29 M0 30.48 C7.69 21.64, 15.38 12.8, 26.25 0.29 M-0.26 36.88 C8.61 26.68, 17.48 16.48, 31.89 -0.1 M-0.26 36.88 C11.29 23.6, 22.83 10.32, 31.89 -0.1 M0.14 42.52 C9.02 32.3, 17.91 22.08, 36.88 0.26 M0.14 42.52 C13.1 27.61, 26.06 12.7, 36.88 0.26 M-0.12 48.92 C10.92 36.22, 21.96 23.51, 42.52 -0.14 M-0.12 48.92 C8.96 38.47, 18.03 28.03, 42.52 -0.14 M0.27 54.56 C11.99 41.08, 23.71 27.6, 47.51 0.22 M0.27 54.56 C17.57 34.66, 34.88 14.75, 47.51 0.22 M0.01 60.96 C10.62 48.76, 21.23 36.55, 52.49 0.58 M0.01 60.96 C13.58 45.34, 27.16 29.73, 52.49 0.58 M-0.25 67.36 C18.33 45.98, 36.91 24.61, 52.23 6.98 M-0.25 67.36 C14.75 50.1, 29.75 32.85, 52.23 6.98 M0.14 73 C18.31 52.1, 36.48 31.2, 52.63 12.62 M0.14 73 C17.2 53.37, 34.26 33.75, 52.63 12.62 M-0.12 79.4 C20.81 55.32, 41.74 31.24, 52.37 19.02 M-0.12 79.4 C13.87 63.31, 27.85 47.22, 52.37 19.02 M0.28 85.04 C14.73 68.42, 29.17 51.8, 52.1 25.42 M0.28 85.04 C18.1 64.53, 35.93 44.02, 52.1 25.42 M0.01 91.44 C14.11 75.23, 28.2 59.02, 52.5 31.06 M0.01 91.44 C14.02 75.33, 28.02 59.22, 52.5 31.06 M-0.25 97.84 C17.31 77.64, 34.86 57.45, 52.24 37.46 M-0.25 97.84 C18.15 76.68, 36.54 55.51, 52.24 37.46 M0.15 103.48 C15.69 85.6, 31.23 67.73, 52.63 43.1 M0.15 103.48 C13.18 88.48, 26.22 73.49, 52.63 43.1 M-0.11 109.88 C20.59 86.06, 41.3 62.23, 52.37 49.5 M-0.11 109.88 C14.72 92.81, 29.56 75.74, 52.37 49.5 M0.28 115.52 C13.83 99.93, 27.38 84.35, 52.11 55.9 M0.28 115.52 C19.76 93.11, 39.24 70.7, 52.11 55.9 M0.02 121.92 C15.1 104.57, 30.19 87.22, 52.5 61.54 M0.02 121.92 C20.06 98.86, 40.1 75.81, 52.5 61.54 M-0.24 128.32 C20.29 104.7, 40.82 81.08, 52.24 67.94 M-0.24 128.32 C11.15 115.21, 22.55 102.1, 52.24 67.94 M0.15 133.96 C20.52 110.53, 40.89 87.1, 52.64 73.58 M0.15 133.96 C20.74 110.27, 41.33 86.59, 52.64 73.58 M-0.11 140.36 C18.73 118.69, 37.57 97.02, 52.38 79.98 M-0.11 140.36 C17.9 119.64, 35.9 98.93, 52.38 79.98 M0.29 146 C11.62 132.96, 22.95 119.93, 52.11 86.38 M0.29 146 C19.03 124.44, 37.77 102.88, 52.11 86.38 M0.02 152.4 C14.99 135.18, 29.96 117.96, 52.51 92.02 M0.02 152.4 C17.23 132.61, 34.43 112.82, 52.51 92.02 M-0.24 158.8 C12.78 143.82, 25.8 128.85, 52.25 98.42 M-0.24 158.8 C12.38 144.28, 25 129.76, 52.25 98.42 M0.16 164.44 C17.86 144.08, 35.56 123.72, 52.64 104.06 M0.16 164.44 C18.45 143.4, 36.74 122.36, 52.64 104.06 M-0.1 170.84 C15.22 153.21, 30.54 135.58, 52.38 110.46 M-0.1 170.84 C14.72 153.78, 29.55 136.73, 52.38 110.46 M0.29 176.48 C17.36 156.85, 34.42 137.21, 52.12 116.86 M0.29 176.48 C20.27 153.5, 40.25 130.51, 52.12 116.86 M0.03 182.88 C16.46 163.97, 32.89 145.07, 52.51 122.5 M0.03 182.88 C12.87 168.11, 25.71 153.34, 52.51 122.5 M-0.23 189.27 C16.69 169.8, 33.62 150.33, 52.25 128.9 M-0.23 189.27 C11.43 175.86, 23.09 162.44, 52.25 128.9 M0.16 194.92 C11.76 181.58, 23.35 168.24, 52.65 134.54 M0.16 194.92 C20.47 171.56, 40.78 148.2, 52.65 134.54 M-0.1 201.32 C11.7 187.75, 23.49 174.18, 52.39 140.94 M-0.1 201.32 C12.77 186.51, 25.64 171.7, 52.39 140.94 M0.3 206.96 C14.39 190.75, 28.48 174.54, 52.12 147.34 M0.3 206.96 C14.42 190.71, 28.54 174.47, 52.12 147.34 M0.03 213.36 C20.55 189.76, 41.06 166.16, 52.52 152.98 M0.03 213.36 C12.85 198.61, 25.67 183.86, 52.52 152.98 M-0.23 219.75 C13.9 203.5, 28.04 187.24, 52.26 159.38 M-0.23 219.75 C19.06 197.56, 38.36 175.37, 52.26 159.38 M0.17 225.4 C11.85 211.96, 23.53 198.52, 52.65 165.02 M0.17 225.4 C11.3 212.59, 22.43 199.78, 52.65 165.02 M-0.09 231.8 C18.97 209.87, 38.03 187.94, 52.39 171.42 M-0.09 231.8 C12.59 217.21, 25.26 202.62, 52.39 171.42 M0.3 237.44 C19.4 215.46, 38.5 193.49, 52.13 177.82 M0.3 237.44 C18.17 216.88, 36.04 196.32, 52.13 177.82 M0.04 243.84 C13.19 228.7, 26.35 213.57, 52.52 183.46 M0.04 243.84 C19.3 221.68, 38.56 199.52, 52.52 183.46 M-0.22 250.23 C16.79 230.66, 33.8 211.09, 52.26 189.86 M-0.22 250.23 C12.44 235.67, 25.1 221.1, 52.26 189.86 M0.17 255.88 C19.88 233.2, 39.59 210.53, 52.66 195.5 M0.17 255.88 C16.94 236.59, 33.71 217.3, 52.66 195.5 M-0.09 262.27 C12.07 248.29, 24.23 234.3, 52.4 201.9 M-0.09 262.27 C15.86 243.93, 31.8 225.59, 52.4 201.9 M0.3 267.92 C17.34 248.32, 34.37 228.73, 52.13 208.3 M0.3 267.92 C19.89 245.39, 39.47 222.87, 52.13 208.3 M2.01 272.05 C16.18 255.75, 30.35 239.46, 52.53 213.94 M2.01 272.05 C19.07 252.42, 36.13 232.8, 52.53 213.94 M7.65 271.66 C18.7 258.95, 29.75 246.23, 52.27 220.34 M7.65 271.66 C22.1 255.04, 36.55 238.42, 52.27 220.34 M12.64 272.02 C24.91 257.91, 37.17 243.8, 52.66 225.98 M12.64 272.02 C26.71 255.84, 40.77 239.66, 52.66 225.98 M17.63 272.38 C25.18 263.69, 32.73 255.01, 52.4 232.38 M17.63 272.38 C26.06 262.68, 34.5 252.97, 52.4 232.38 M23.27 271.98 C34.61 258.94, 45.95 245.9, 52.14 238.78 M23.27 271.98 C33.57 260.14, 43.86 248.3, 52.14 238.78 M28.26 272.34 C34.77 264.85, 41.29 257.36, 52.53 244.42 M28.26 272.34 C36.08 263.35, 43.9 254.35, 52.53 244.42 M33.9 271.95 C38.85 266.26, 43.79 260.57, 52.27 250.82 M33.9 271.95 C40.66 264.18, 47.41 256.4, 52.27 250.82 M38.89 272.31 C44.12 266.29, 49.35 260.28, 52.67 256.46 M38.89 272.31 C42.39 268.29, 45.88 264.26, 52.67 256.46 M44.53 271.91 C46.99 269.09, 49.45 266.26, 52.4 262.86 M44.53 271.91 C46.13 270.08, 47.73 268.24, 52.4 262.86 M49.52 272.27 C50.24 271.44, 50.97 270.61, 52.14 269.25 M49.52 272.27 C50.13 271.57, 50.74 270.87, 52.14 269.25 M-0.22 270.05 C-0.22 270.05, -0.22 270.05, -0.22 270.05 M-0.22 270.05 C-0.22 270.05, -0.22 270.05, -0.22 270.05 M6.17 270.31 C4.79 269.11, 3.4 267.9, 0.14 265.06 M6.17 270.31 C4.04 268.45, 1.9 266.6, 0.14 265.06 M12.57 270.57 C9.49 267.9, 6.41 265.22, -0.26 259.42 M12.57 270.57 C9.6 267.99, 6.62 265.4, -0.26 259.42 M18.21 270.18 C13.51 266.09, 8.81 262, 0.1 254.43 M18.21 270.18 C14.21 266.7, 10.21 263.22, 0.1 254.43 M24.61 270.44 C16.83 263.68, 9.05 256.91, -0.29 248.79 M24.61 270.44 C17.72 264.45, 10.83 258.46, -0.29 248.79 M30.26 270.05 C20.25 261.35, 10.25 252.65, 0.07 243.8 M30.26 270.05 C20.11 261.23, 9.96 252.41, 0.07 243.8 M36.65 270.31 C24.55 259.79, 12.45 249.27, -0.33 238.16 M36.65 270.31 C27.47 262.33, 18.29 254.35, -0.33 238.16 M43.05 270.57 C27.66 257.19, 12.28 243.82, 0.03 233.17 M43.05 270.57 C29.86 259.1, 16.67 247.64, 0.03 233.17 M48.69 270.17 C34.2 257.57, 19.7 244.97, -0.36 227.53 M48.69 270.17 C30.07 253.99, 11.45 237.8, -0.36 227.53 M52.83 268.47 C31.8 250.19, 10.77 231.91, 0 222.54 M52.83 268.47 C40.02 257.34, 27.22 246.21, 0 222.54 M53.19 263.48 C38.65 250.84, 24.11 238.2, 0.36 217.56 M53.19 263.48 C36.95 249.36, 20.7 235.24, 0.36 217.56 M52.79 257.84 C39.12 245.95, 25.44 234.06, -0.04 211.91 M52.79 257.84 C33.96 241.46, 15.12 225.09, -0.04 211.91 M53.15 252.85 C33.55 235.81, 13.94 218.76, 0.32 206.93 M53.15 252.85 C38.81 240.38, 24.47 227.92, 0.32 206.93 M52.76 247.21 C37.26 233.73, 21.76 220.26, -0.07 201.28 M52.76 247.21 C33.45 230.43, 14.15 213.64, -0.07 201.28 M53.12 242.22 C35.42 226.84, 17.73 211.45, 0.29 196.3 M53.12 242.22 C36.51 227.78, 19.9 213.34, 0.29 196.3 M52.72 236.58 C42.06 227.31, 31.4 218.04, -0.11 190.65 M52.72 236.58 C37.49 223.33, 22.26 210.09, -0.11 190.65 M53.08 231.59 C33.78 214.81, 14.48 198.03, 0.25 185.67 M53.08 231.59 C38.17 218.62, 23.25 205.66, 0.25 185.67 M52.69 225.95 C40.48 215.33, 28.26 204.71, -0.14 180.02 M52.69 225.95 C39.59 214.56, 26.5 203.18, -0.14 180.02 M53.05 220.96 C36.79 206.83, 20.53 192.69, 0.22 175.04 M53.05 220.96 C41.2 210.66, 29.35 200.36, 0.22 175.04 M52.65 215.32 C32.83 198.08, 13 180.85, -0.17 169.39 M52.65 215.32 C38.41 202.93, 24.17 190.55, -0.17 169.39 M53.02 210.33 C39.57 198.64, 26.13 186.96, 0.19 164.41 M53.02 210.33 C32.29 192.31, 11.56 174.29, 0.19 164.41 M52.62 204.69 C32.81 187.46, 13 170.24, -0.21 158.76 M52.62 204.69 C37.7 191.72, 22.79 178.75, -0.21 158.76 M52.98 199.7 C34.77 183.87, 16.56 168.04, 0.15 153.78 M52.98 199.7 C40.19 188.59, 27.41 177.47, 0.15 153.78 M53.34 194.71 C36.3 179.9, 19.27 165.09, -0.24 148.13 M53.34 194.71 C36.31 179.9, 19.27 165.1, -0.24 148.13 M52.95 189.07 C33.68 172.33, 14.42 155.58, 0.12 143.15 M52.95 189.07 C40.71 178.43, 28.47 167.79, 0.12 143.15 M53.31 184.08 C40.52 172.97, 27.73 161.85, -0.28 137.5 M53.31 184.08 C36.62 169.58, 19.94 155.08, -0.28 137.5 M52.91 178.44 C34.58 162.5, 16.24 146.56, 0.08 132.52 M52.91 178.44 C41.14 168.21, 29.37 157.98, 0.08 132.52 M53.27 173.45 C36.21 158.62, 19.14 143.79, -0.31 126.87 M53.27 173.45 C37.15 159.44, 21.04 145.43, -0.31 126.87 M52.88 167.81 C33.23 150.73, 13.58 133.65, 0.05 121.89 M52.88 167.81 C38.07 154.94, 23.27 142.07, 0.05 121.89 M53.24 162.82 C37.93 149.52, 22.62 136.21, -0.35 116.24 M53.24 162.82 C41.05 152.23, 28.86 141.63, -0.35 116.24 M52.84 157.18 C33.51 140.38, 14.18 123.57, 0.01 111.26 M52.84 157.18 C38.49 144.7, 24.14 132.23, 0.01 111.26 M53.2 152.19 C41.82 142.3, 30.44 132.41, 0.37 106.27 M53.2 152.19 C35.46 136.77, 17.72 121.35, 0.37 106.27 M52.81 146.55 C36.82 132.65, 20.84 118.76, -0.02 100.63 M52.81 146.55 C38.64 134.23, 24.47 121.92, -0.02 100.63 M53.17 141.56 C35.75 126.42, 18.32 111.27, 0.34 95.64 M53.17 141.56 C33.44 124.42, 13.72 107.27, 0.34 95.64 M52.77 135.92 C42.08 126.62, 31.39 117.33, -0.06 90 M52.77 135.92 C34.61 120.13, 16.45 104.35, -0.06 90 M53.13 130.93 C32.13 112.67, 11.12 94.41, 0.3 85.01 M53.13 130.93 C32.5 112.99, 11.86 95.05, 0.3 85.01 M52.74 125.29 C35.16 110.01, 17.58 94.72, -0.09 79.37 M52.74 125.29 C32.9 108.04, 13.05 90.79, -0.09 79.37 M53.1 120.3 C35.42 104.93, 17.74 89.56, 0.27 74.38 M53.1 120.3 C35.06 104.62, 17.02 88.94, 0.27 74.38 M52.7 114.66 C41.72 105.11, 30.74 95.57, -0.13 68.74 M52.7 114.66 C39.81 103.45, 26.92 92.24, -0.13 68.74 M53.06 109.67 C42.31 100.32, 31.55 90.97, 0.24 63.75 M53.06 109.67 C38.12 96.69, 23.18 83.7, 0.24 63.75 M52.67 104.03 C32.14 86.18, 11.6 68.33, -0.16 58.11 M52.67 104.03 C40.38 93.35, 28.1 82.67, -0.16 58.11 M53.03 99.04 C41.73 89.22, 30.42 79.39, 0.2 53.12 M53.03 99.04 C33.24 81.84, 13.46 64.64, 0.2 53.12 M52.64 93.4 C37.67 80.39, 22.7 67.38, -0.19 47.48 M52.64 93.4 C40.61 82.94, 28.58 72.49, -0.19 47.48 M53 88.41 C35.98 73.62, 18.96 58.82, 0.17 42.49 M53 88.41 C38.21 75.56, 23.43 62.71, 0.17 42.49 M53.36 83.43 C34.79 67.29, 16.22 51.15, -0.23 36.85 M53.36 83.43 C36.26 68.56, 19.16 53.7, -0.23 36.85 M52.96 77.78 C40.74 67.16, 28.51 56.53, 0.13 31.86 M52.96 77.78 C33.68 61.02, 14.39 44.26, 0.13 31.86 M53.32 72.8 C38.32 59.75, 23.32 46.71, -0.26 26.21 M53.32 72.8 C31.9 54.18, 10.48 35.56, -0.26 26.21 M52.93 67.15 C32.22 49.16, 11.52 31.16, 0.1 21.23 M52.93 67.15 C37.11 53.4, 21.29 39.65, 0.1 21.23 M53.29 62.17 C40.84 51.34, 28.39 40.52, -0.3 15.58 M53.29 62.17 C33.71 45.14, 14.13 28.12, -0.3 15.58 M52.89 56.52 C42.29 47.31, 31.7 38.1, 0.06 10.6 M52.89 56.52 C39.39 44.79, 25.89 33.05, 0.06 10.6 M53.25 51.53 C31.87 32.95, 10.49 14.36, -0.33 4.95 M53.25 51.53 C36.36 36.85, 19.47 22.17, -0.33 4.95 M52.86 45.89 C42.21 36.64, 31.57 27.39, 0.03 -0.03 M52.86 45.89 C36.53 31.7, 20.21 17.51, 0.03 -0.03 M53.22 40.9 C42.81 31.86, 32.41 22.82, 6.43 0.23 M53.22 40.9 C36.77 26.61, 20.33 12.31, 6.43 0.23 M52.82 35.26 C41.2 25.16, 29.57 15.05, 12.07 -0.17 M52.82 35.26 C43.1 26.81, 33.37 18.35, 12.07 -0.17 M53.18 30.27 C39.59 18.46, 25.99 6.64, 18.47 0.1 M53.18 30.27 C40.01 18.83, 26.85 7.38, 18.47 0.1 M52.79 24.63 C44.48 17.41, 36.18 10.19, 24.11 -0.3 M52.79 24.63 C43.43 16.5, 34.08 8.36, 24.11 -0.3 M53.15 19.64 C47.65 14.87, 42.15 10.09, 30.51 -0.04 M53.15 19.64 C46.19 13.6, 39.23 7.55, 30.51 -0.04 M52.75 14 C46.43 8.5, 40.11 3.01, 36.91 0.22 M52.75 14 C47.1 9.08, 41.44 4.17, 36.91 0.22 M53.11 9.01 C49.32 5.72, 45.53 2.42, 42.55 -0.17 M53.11 9.01 C50.5 6.75, 47.89 4.48, 42.55 -0.17 M52.72 3.37 C51.42 2.24, 50.12 1.11, 48.95 0.09 M52.72 3.37 C51.89 2.65, 51.07 1.94, 48.95 0.09" stroke="#f08c00" stroke-width="0.5" fill="none"></path><path d="M0 0 C11.16 0, 22.32 0, 51.58 0 M0 0 C19.63 0, 39.26 0, 51.58 0 M51.58 0 C51.58 57.82, 51.58 115.64, 51.58 270.25 M51.58 0 C51.58 69.1, 51.58 138.2, 51.58 270.25 M51.58 270.25 C37.66 270.25, 23.74 270.25, 0 270.25 M51.58 270.25 C36.26 270.25, 20.95 270.25, 0 270.25 M0 270.25 C0 197.4, 0 124.56, 0 0 M0 270.25 C0 172.88, 0 75.52, 0 0" stroke="#1e1e1e" stroke-width="1" fill="none"></path></g><g transform="translate(40.442376925400936 10) rotate(0 3.7519989013671875 10)"><text x="0" y="0" font-family="Virgil, Segoe UI Emoji" font-size="16px" fill="#1e1e1e" text-anchor="start" style="white-space: pre;" direction="ltr" dominant-baseline="text-before-edge">y</text></g><g transform="translate(457.98607694642135 353.3979890170568) rotate(0 4.495994567871094 10)"><text x="0" y="0" font-family="Virgil, Segoe UI Emoji" font-size="16px" fill="#1e1e1e" text-anchor="start" style="white-space: pre;" direction="ltr" dominant-baseline="text-before-edge">x</text></g><g transform="translate(-24.028540092757908 215.9991730526595) rotate(270 54.999977111816406 10)"><text x="0" y="0" font-family="Virgil, Segoe UI Emoji" font-size="16px" fill="#2f9e44" text-anchor="start" style="white-space: pre;" direction="ltr" dominant-baseline="text-before-edge">Lngste Seite</text></g><g transform="translate(361.8719401823531 273.17749075575466) rotate(89.99999999999994 58.52796936035156 10)"><text x="0" y="0" font-family="Virgil, Segoe UI Emoji" font-size="16px" fill="#2f9e44" text-anchor="start" style="white-space: pre;" direction="ltr" dominant-baseline="text-before-edge">Krzeste Seite</text></g><g stroke-linecap="round"><g transform="translate(408.1944936644268 365.171885248149) rotate(0 -5.684341886080802e-14 12.09140918991804)"><path d="M0 0 C0 4.03, 0 20.15, 0 24.18 M0 0 C0 4.03, 0 20.15, 0 24.18" stroke="#1e1e1e" stroke-width="2" fill="none"></path></g></g><mask></mask><g transform="translate(349.6043171173782 394.73544468928486) rotate(0 62.351959228515625 10)"><text x="0" y="0" font-family="Virgil, Segoe UI Emoji" font-size="16px" fill="#2f9e44" text-anchor="start" style="white-space: pre;" direction="ltr" dominant-baseline="text-before-edge">Terrassenbreite</text></g><g transform="translate(32.796376532551676 392.82407583975487) rotate(0 45.111976623535156 10)"><text x="0" y="0" font-family="Virgil, Segoe UI Emoji" font-size="16px" fill="#2f9e44" text-anchor="start" style="white-space: pre;" direction="ltr" dominant-baseline="text-before-edge">Dielenbreite</text></g><g stroke-linecap="round"><g transform="translate(69.9196350244045 387.76845929190887) rotate(0 -0.8711938853926142 -8.693167927456187)"><path d="M0 0 C-0.29 -2.9, -1.45 -14.49, -1.74 -17.39 M0 0 C-0.29 -2.9, -1.45 -14.49, -1.74 -17.39" stroke="#2f9e44" stroke-width="2" fill="none"></path></g><g transform="translate(69.9196350244045 387.76845929190887) rotate(0 -0.8711938853926142 -8.693167927456187)"><path d="M-1.74 -17.39 L2.72 -9.88 L-4.63 -9.14 L-1.74 -17.39" stroke="none" stroke-width="0" fill="#2f9e44" fill-rule="evenodd"></path><path d="M-1.74 -17.39 C-0.08 -14.59, 1.59 -11.79, 2.72 -9.88 M-1.74 -17.39 C-0.63 -15.52, 0.48 -13.65, 2.72 -9.88 M2.72 -9.88 C0.81 -9.68, -1.1 -9.49, -4.63 -9.14 M2.72 -9.88 C0.46 -9.65, -1.8 -9.42, -4.63 -9.14 M-4.63 -9.14 C-3.68 -11.84, -2.73 -14.55, -1.74 -17.39 M-4.63 -9.14 C-3.65 -11.93, -2.67 -14.73, -1.74 -17.39 M-1.74 -17.39 C-1.74 -17.39, -1.74 -17.39, -1.74 -17.39 M-1.74 -17.39 C-1.74 -17.39, -1.74 -17.39, -1.74 -17.39" stroke="#2f9e44" stroke-width="2" fill="none"></path></g></g><mask></mask><g stroke-linecap="round" transform="translate(239.31945110520167 350.7846547421288) rotate(0 12.807932230439803 12.807932230439803)"><path d="M25.62 12.81 C25.62 13.55, 25.55 14.3, 25.42 15.03 C25.29 15.76, 25.1 16.49, 24.84 17.19 C24.59 17.89, 24.27 18.57, 23.9 19.21 C23.53 19.85, 23.1 20.47, 22.62 21.04 C22.14 21.61, 21.61 22.14, 21.04 22.62 C20.47 23.1, 19.85 23.53, 19.21 23.9 C18.57 24.27, 17.89 24.59, 17.19 24.84 C16.49 25.1, 15.76 25.29, 15.03 25.42 C14.3 25.55, 13.55 25.62, 12.81 25.62 C12.07 25.62, 11.31 25.55, 10.58 25.42 C9.85 25.29, 9.12 25.1, 8.43 24.84 C7.73 24.59, 7.05 24.27, 6.4 23.9 C5.76 23.53, 5.14 23.1, 4.58 22.62 C4.01 22.14, 3.47 21.61, 3 21.04 C2.52 20.47, 2.09 19.85, 1.72 19.21 C1.35 18.57, 1.03 17.89, 0.77 17.19 C0.52 16.49, 0.32 15.76, 0.19 15.03 C0.07 14.3, 0 13.55, 0 12.81 C0 12.07, 0.07 11.31, 0.19 10.58 C0.32 9.85, 0.52 9.12, 0.77 8.43 C1.03 7.73, 1.35 7.05, 1.72 6.4 C2.09 5.76, 2.52 5.14, 3 4.58 C3.47 4.01, 4.01 3.47, 4.58 3 C5.14 2.52, 5.76 2.09, 6.4 1.72 C7.05 1.35, 7.73 1.03, 8.43 0.77 C9.12 0.52, 9.85 0.32, 10.58 0.19 C11.31 0.07, 12.07 0, 12.81 0 C13.55 0, 14.3 0.07, 15.03 0.19 C15.76 0.32, 16.49 0.52, 17.19 0.77 C17.89 1.03, 18.57 1.35, 19.21 1.72 C19.85 2.09, 20.47 2.52, 21.04 3 C21.61 3.47, 22.14 4.01, 22.62 4.58 C23.1 5.14, 23.53 5.76, 23.9 6.4 C24.27 7.05, 24.59 7.73, 24.84 8.43 C25.1 9.12, 25.29 9.85, 25.42 10.58 C25.55 11.31, 25.58 12.44, 25.62 12.81 C25.65 13.18, 25.65 12.44, 25.62 12.81" stroke="#e03131" stroke-width="2" fill="none"></path></g><g transform="translate(202.15133404431765 394.49211587838914) rotate(0 54.47196960449219 10)"><text x="0" y="0" font-family="Virgil, Segoe UI Emoji" font-size="16px" fill="#2f9e44" text-anchor="start" style="white-space: pre;" direction="ltr" dominant-baseline="text-before-edge">Dielenabstand</text></g><g stroke-linecap="round"><g transform="translate(252.88079111390266 393.4875721740409) rotate(0 -0.5022718521740899 -5.776126300002261)"><path d="M0 0 C-0.17 -1.93, -0.84 -9.63, -1 -11.55 M0 0 C-0.17 -1.93, -0.84 -9.63, -1 -11.55" stroke="#2f9e44" stroke-width="2" fill="none"></path></g><g transform="translate(252.88079111390266 393.4875721740409) rotate(0 -0.5022718521740899 -5.776126300002261)"><path d="M-1 -11.55 L1.89 -6.53 L-2.99 -6.11 L-1 -11.55" stroke="none" stroke-width="0" fill="#2f9e44" fill-rule="evenodd"></path><path d="M-1 -11.55 C-0.33 -10.39, 0.34 -9.23, 1.89 -6.53 M-1 -11.55 C-0.29 -10.31, 0.43 -9.06, 1.89 -6.53 M1.89 -6.53 C0.12 -6.38, -1.65 -6.22, -2.99 -6.11 M1.89 -6.53 C0.59 -6.42, -0.71 -6.3, -2.99 -6.11 M-2.99 -6.11 C-2.55 -7.33, -2.1 -8.55, -1 -11.55 M-2.99 -6.11 C-2.2 -8.27, -1.41 -10.44, -1 -11.55 M-1 -11.55 C-1 -11.55, -1 -11.55, -1 -11.55 M-1 -11.55 C-1 -11.55, -1 -11.55, -1 -11.55" stroke="#2f9e44" stroke-width="2" fill="none"></path></g></g><mask></mask></svg>